<svg xmlns="http://www.w3.org/2000/svg" version="1.1" xmlns:xlink="http://www.w3.org/1999/xlink" width="512" height="512" x="0" y="0" viewBox="0 0 60 60" style="enable-background:new 0 0 512 512" xml:space="preserve" class=""><g><path fill="#ffffff" d="M16.41 55.47a.5.5 0 0 1-.278-.916l.785-.525-2.379 1.371a.5.5 0 0 1-.552-.831l5.446-4.124-8.583 4.955a.5.5 0 0 1-.55-.833l5.251-3.927L7.3 55.4a.5.5 0 0 1-.545-.836l4.758-3.477-7.252 4.187a.5.5 0 0 1-.552-.831l5.243-3.965-6.513 3.759a.5.5 0 0 1-.551-.831l3.886-2.943L1.562 52.9a.5.5 0 0 1-.576-.812l3.442-2.961-3.148 1.811a.5.5 0 0 1-.61-.779l1.862-1.937-1.252.722a.5.5 0 0 1-.74-.531l.327-1.622a.5.5 0 0 1-.087-.9l.5-.289a.5.5 0 0 1 .74.531l-.282 1.4 3.348-1.932a.5.5 0 0 1 .61.779l-1.86 1.929 4.71-2.719a.5.5 0 0 1 .576.811l-3.44 2.961 6.541-3.776a.5.5 0 0 1 .551.831L8.888 49.36l6.543-3.777a.5.5 0 0 1 .551.831l-5.244 3.967 8.318-4.8a.5.5 0 0 1 .545.836l-4.76 3.48 7.48-4.319a.5.5 0 0 1 .55.833l-5.248 3.928 8.253-4.765a.5.5 0 0 1 .552.831l-5.448 4.123 8.593-4.96a.5.5 0 0 1 .529.849l-.79.527 1.41-.813a.5.5 0 0 1 .56.824l-5.267 4.174 4.714-2.722a.5.5 0 0 1 .585.8l-3.281 2.962 2.7-1.561a.5.5 0 0 1 .583.806l-.777.694.2-.114a.5.5 0 0 1 .728.58l-.444 1.435a.5.5 0 0 1 .223.931l-.793.458a.5.5 0 0 1-.727-.58l.409-1.32-3.294 1.9a.5.5 0 0 1-.583-.8l.777-.7-2.6 1.5a.5.5 0 0 1-.584-.8l3.281-2.962-6.521 3.764a.5.5 0 0 1-.56-.824l5.267-4.176-8.658 5a.5.5 0 0 1-.25.07z" opacity="1" data-original="#d8d8d8" class=""></path><path fill="#ffffff" d="M4.306 47.538a.5.5 0 0 1-.25-.933l1.693-.978a.5.5 0 1 1 .5.865l-1.693.979a.491.491 0 0 1-.25.067z" opacity="1" data-original="#3b896e" class=""></path><path fill="#ffffff" d="M1.03 49.962a.5.5 0 0 1-.359-.848l2.475-2.553-1.866 1.077a.5.5 0 0 1-.59-.8l1.718-1.595-1.128.657a.5.5 0 0 1-.594-.8l1.923-1.83-1.329.766a.5.5 0 0 1-.58-.807l1.23-1.086-.649.374a.5.5 0 0 1-.6-.789L2.84 39.6l-1.56.9a.5.5 0 0 1-.6-.792l2.038-1.971-1.441.832a.5.5 0 0 1-.584-.8L2.105 36.5l-.825.477a.5.5 0 0 1-.586-.8l1.484-1.344-.9.518a.5.5 0 0 1-.6-.786L3 32.221l-1.72.993A.5.5 0 0 1 .7 32.4l1.018-.882-.44.253a.5.5 0 0 1-.583-.8l1.324-1.18-.741.427a.5.5 0 0 1-.578-.811l1.132-.993-.553.319a.5.5 0 0 1-.568-.818l.431-.355a.5.5 0 0 1-.442-.867l.93-.8-.354.2a.5.5 0 0 1-.572-.816l.609-.512-.037.021a.5.5 0 0 1-.571-.815l.573-.482a.5.5 0 0 1-.593-.8l1.818-1.709-1.225.706a.5.5 0 0 1-.568-.818l.435-.359a.5.5 0 0 1-.462-.848l1.94-1.854-1.343.783a.5.5 0 0 1-.572-.815l.657-.555-.085.049a.5.5 0 0 1-.58-.807l1.26-1.119-.68.391a.5.5 0 0 1-.577-.81l1-.863-.423.239a.5.5 0 0 1-.572-.815l.632-.533-.06.034a.5.5 0 0 1-.585-.8l1.443-1.3-.858.495a.5.5 0 0 1-.609-.78l2.45-2.529L1.28 9.13a.5.5 0 0 1-.588-.8l1.6-1.465-1.012.58a.5.5 0 0 1-.595-.794l1.927-1.84-1.332.768a.5.5 0 0 1-.637-.748l1.584-1.949L2.2 2.9a.5.5 0 0 1-.5-.865L4.073.662a.5.5 0 0 1 .638.748L3.128 3.357l2.593-1.5a.5.5 0 0 1 .595.794L4.388 4.5l1.334-.769a.5.5 0 0 1 .588.8L4.716 5.992l1.007-.581a.5.5 0 0 1 .609.78L3.882 8.72l1.843-1.064a.5.5 0 0 1 .585.8l-1.442 1.3.858-.495a.5.5 0 0 1 .572.814l-.634.534.063-.035a.5.5 0 0 1 .577.811l-.994.862.418-.241a.5.5 0 0 1 .582.806l-1.261 1.126.68-.392a.5.5 0 0 1 .572.814l-.659.558.087-.051a.5.5 0 0 1 .6.794l-1.945 1.856 1.346-.778a.5.5 0 0 1 .569.819l-.435.358a.5.5 0 0 1 .46.851l-1.816 1.709 1.224-.707a.5.5 0 0 1 .572.815l-.572.479a.5.5 0 0 1 .573.816l-.613.515.041-.024a.5.5 0 0 1 .577.812l-.932.8.356-.205a.5.5 0 0 1 .566.823l-.43.354a.5.5 0 0 1 .441.863l-1.133.995.555-.321a.5.5 0 0 1 .583.806L5 28.474l.74-.427a.5.5 0 0 1 .578.81l-1.018.881.439-.253a.5.5 0 0 1 .605.786L4.02 32.613l1.72-.993a.5.5 0 0 1 .586.8l-1.482 1.346.9-.518a.5.5 0 0 1 .584.8l-1.414 1.273.828-.477a.5.5 0 0 1 .6.792L4.3 37.607l1.443-.833a.5.5 0 0 1 .6.789l-2.16 2.124 1.561-.9a.5.5 0 0 1 .581.808L5.1 40.678l.648-.374a.5.5 0 0 1 .595.795l-1.925 1.829 1.329-.767a.5.5 0 0 1 .59.8l-1.719 1.6 1.13-.653a.5.5 0 0 1 .609.781l-4.5 4.638a.5.5 0 0 1-.247.38l-.33.193a.514.514 0 0 1-.25.062z" opacity="1" data-original="#3b896e" class=""></path><path fill="#ffffff" d="M7.536 47.5a.5.5 0 0 1-.267-.923l9.3-5.878L5.28 47.211a.5.5 0 0 1-.512-.858l3.886-2.4L5.28 45.9a.5.5 0 0 1-.519-.853L20.452 35.02 5.28 43.778a.5.5 0 0 1-.513-.857l8.95-5.565-8.437 4.872a.5.5 0 0 1-.515-.857l12.886-8.089L5.28 40.425a.5.5 0 0 1-.516-.856L19.1 30.528 5.28 38.505a.5.5 0 0 1-.515-.857l12.1-7.572L5.28 36.765a.5.5 0 0 1-.512-.859l6.7-4.132-6.188 3.572a.5.5 0 0 1-.518-.855l16.65-10.609L5.28 33.2a.5.5 0 0 1-.515-.856L17.8 24.153 5.28 31.384a.5.5 0 0 1-.515-.857l12.586-7.887L5.28 29.607a.5.5 0 0 1-.51-.859l1.03-.627-.516.3a.5.5 0 0 1-.518-.855l16.38-10.427L5.28 26.3a.5.5 0 0 1-.51-.86l.853-.52-.343.2a.5.5 0 0 1-.516-.855l13.36-8.4L5.28 23.272a.5.5 0 0 1-.513-.857l8.092-5.022-7.579 4.376a.5.5 0 0 1-.511-.859l2.521-1.552-2.01 1.161a.5.5 0 0 1-.519-.854L16.1 12.406 5.28 18.654a.5.5 0 0 1-.519-.853l8.3-5.311-7.781 4.494a.5.5 0 0 1-.522-.851l7.865-5.108-7.343 4.24a.5.5 0 0 1-.533-.845l9.679-6.664-9.146 5.279a.5.5 0 0 1-.53-.847l5.574-3.776-5.044 2.911a.5.5 0 0 1-.54-.84l5.344-3.811L5.28 9.445a.5.5 0 0 1-.558-.826l4.609-3.61L5.28 7.348a.5.5 0 0 1-.584-.8l2.987-2.683L5.28 5.252a.5.5 0 0 1-.656-.725l1.367-1.9-.711.41a.5.5 0 0 1-.726-.584l.222-.7a.493.493 0 0 1-.176-.185.5.5 0 0 1 .18-.683L5.28.6a.5.5 0 0 1 .727.585l-.107.338L7.5.6a.5.5 0 0 1 .656.724L6.79 3.226 11.344.6a.5.5 0 0 1 .584.8L8.942 4.079 14.973.6a.5.5 0 0 1 .558.826l-4.609 3.607L18.605.6a.5.5 0 0 1 .541.84L13.8 5.251 21.859.6a.5.5 0 0 1 .531.846L16.817 5.22 24.824.6a.5.5 0 0 1 .533.844L15.68 8.106 28.686.6a.5.5 0 0 1 .522.851l-7.864 5.105L31.664.6a.5.5 0 0 1 .52.853l-8.306 5.31L34.557.6a.5.5 0 0 1 .519.853l-11.34 7.256L37.785.6a.5.5 0 0 1 .512.858L35.784 3 39.6.8a.5.5 0 0 1 .514.857l-8.091 5.021 8.517-4.917a.5.5 0 0 1 .517.855l-13.364 8.405L40.72 3.5a.5.5 0 0 1 .51.859l-.853.521.343-.2a.5.5 0 0 1 .518.854l-16.38 10.427L40.721 6.8a.5.5 0 0 1 .51.859l-1.055.645.545-.315a.5.5 0 0 1 .515.857l-12.572 7.88 12.057-6.958a.5.5 0 0 1 .515.856L28.2 18.81l12.524-7.231a.5.5 0 0 1 .518.855L24.584 23.047l16.138-9.318a.5.5 0 0 1 .512.859l-6.719 4.144 6.207-3.583a.5.5 0 0 1 .515.857l-12.088 7.563 11.573-6.68a.5.5 0 0 1 .516.855l-14.329 9.038 13.7-7.909a.5.5 0 0 1 .516.856l-12.879 8.084 11.554-6.67a.5.5 0 0 1 .513.857l-8.965 5.574L39.1 23.1a.5.5 0 0 1 .52.853L23.934 33.98l14.216-8.208a.5.5 0 0 1 .513.859l-3.877 2.39 2.778-1.6a.5.5 0 0 1 .518.855l-9.311 5.884 8.045-4.644a.5.5 0 0 1 .515.857l-1.922 1.2.85-.49a.5.5 0 0 1 .517.855l-4.11 2.607 2.971-1.715a.5.5 0 0 1 .517.855l-1.188.754.122-.071a.5.5 0 0 1 .538.841l-8.31 5.867 6.776-3.911a.5.5 0 0 1 .534.844l-3.358 2.316 2.137-1.233a.5.5 0 0 1 .536.843l-1.055.734a.5.5 0 0 1 .521.841l-2.695 2.3 1.276-.737a.494.494 0 0 1 .625.1.5.5 0 0 1 .023.634l-1.256 1.639a.5.5 0 0 1 .235.933L29.838 47.4a.5.5 0 0 1-.648-.736l1.138-1.49-3.865 2.23a.5.5 0 0 1-.574-.813l2.693-2.291-5.389 3.111a.5.5 0 0 1-.536-.843l1.029-.715-2.7 1.56a.5.5 0 0 1-.534-.844l3.348-2.312-5.476 3.161a.5.5 0 0 1-.538-.841l8.314-5.866-11.629 6.711a.5.5 0 0 1-.518-.855l1.2-.758-2.8 1.616a.5.5 0 0 1-.518-.855l4.109-2.606-6 3.463a.5.5 0 0 1-.514-.858l1.93-1.2-3.574 2.061a.494.494 0 0 1-.25.07z" opacity="1" data-original="#4bb592" class=""></path><path fill="#ffffff" d="M17.8 28.47a.5.5 0 0 1-.272-.92l1.243-.8-2.865 1.65a.5.5 0 0 1-.522-.851l4.649-3.028-6.719 3.879a.5.5 0 0 1-.527-.848l9.922-6.61L10.837 27.8a.5.5 0 0 1-.525-.85l11.468-7.575-11.5 6.64a.5.5 0 0 1-.525-.85L21.5 17.4l-11.22 6.474a.5.5 0 0 1-.522-.852l7.978-5.193-7.456 4.305a.5.5 0 0 1-.532-.846l9.169-6.269L10.28 20a.5.5 0 0 1-.528-.848l4.866-3.264L10.28 18.4a.5.5 0 0 1-.526-.85l1.583-1.05-1.057.609a.5.5 0 0 1-.551-.831l5.008-3.791-4.457 2.57a.5.5 0 0 1-.563-.823l3.153-2.54-2.59 1.495a.5.5 0 0 1-.583-.8l1.664-1.489-1.081.624a.5.5 0 0 1-.672-.7l.865-1.358a.5.5 0 0 1-.406-.908l1.659-.958a.5.5 0 0 1 .671.7l-.85 1.338L15.083 7.6a.5.5 0 0 1 .583.805L14 9.886 17.967 7.6a.5.5 0 0 1 .563.822l-3.154 2.54L21.2 7.6a.5.5 0 0 1 .552.831l-5.008 3.789L24.75 7.6a.5.5 0 0 1 .526.849L23.693 9.5l3.291-1.9a.5.5 0 0 1 .529.847l-4.868 3.266L29.771 7.6a.5.5 0 0 1 .532.845l-9.169 6.271L33.46 7.6a.5.5 0 0 1 .522.851l-7.968 5.187L35.251 8.3a.5.5 0 0 1 .525.849l-11.744 7.772 11.688-6.748a.5.5 0 0 1 .525.849L24.773 18.6l10.948-6.321a.5.5 0 0 1 .527.849l-9.921 6.609 9.4-5.423a.5.5 0 0 1 .522.851l-4.652 3.029 4.131-2.384a.5.5 0 0 1 .521.852l-1.237.8.716-.413a.5.5 0 0 1 .545.836l-6.883 5.029 5.76-3.325a.5.5 0 0 1 .535.844l-1.51 1.045a.5.5 0 0 1 .56.18.5.5 0 0 1-.069.665l-3.153 2.843.807-.466a.5.5 0 0 1 .619.771L31.8 26.716a.481.481 0 0 1 .113.135.5.5 0 0 1-.183.682l-1.505.869a.5.5 0 0 1-.62-.77l.41-.447-2.109 1.215a.5.5 0 0 1-.585-.8l3.153-2.842-6.316 3.642a.5.5 0 0 1-.534-.843l1.407-.974-3.148 1.817a.5.5 0 0 1-.545-.836l6.875-5.03L18.052 28.4a.5.5 0 0 1-.252.07z" opacity="1" data-original="#ffffff" class=""></path><path fill="#ffffff" d="M40.385 59.47a.5.5 0 0 1-.27-.921l.287-.184L38.6 59.4a.5.5 0 0 1-.526-.849l7-4.631-9.494 5.48a.5.5 0 0 1-.525-.849l9.553-6.3-11.762 6.794a.5.5 0 0 1-.525-.851l12.024-7.908-12.79 7.384a.5.5 0 0 1-.517-.856l6.421-4.056-6.179 3.567a.5.5 0 0 1-.521-.852l11.035-7.124-10.514 6.069a.5.5 0 0 1-.52-.853l10.607-6.831-10.087 5.824a.5.5 0 0 1-.523-.852l12.593-8.217-12.07 6.968a.5.5 0 0 1-.522-.852l12.352-8.046-11.83 6.83a.5.5 0 0 1-.524-.851l13.084-8.57-12.56 7.251a.5.5 0 0 1-.517-.856l7.3-4.623-6.783 3.916a.5.5 0 0 1-.524-.85l13.481-8.86-12.957 7.481a.5.5 0 0 1-.524-.851l13.65-8.983-13.126 7.578a.5.5 0 0 1-.514-.857L34.475 37l-3.195 1.84a.5.5 0 0 1-.518-.855l8.567-5.464-8.049 4.647a.5.5 0 0 1-.514-.857l1.852-1.155-1.338.773a.5.5 0 0 1-.52-.854l8.013-5.155-7.493 4.326a.5.5 0 0 1-.521-.852l6.285-4.067-5.764 3.327a.5.5 0 0 1-.529-.847l7.572-5.1-7.043 4.067a.5.5 0 0 1-.523-.851l1.993-1.3-1.47.848a.5.5 0 0 1-.528-.848l2.629-1.766-2.1 1.213a.5.5 0 0 1-.529-.847l.726-.489-.2.114a.5.5 0 0 1-.559-.826l3.938-3.11-3.377 1.951a.5.5 0 0 1-.575-.812l2.213-1.9-1.638.949a.5.5 0 0 1-.654-.728l1.242-1.7a.5.5 0 0 1-.5-.865l2.05-1.184a.5.5 0 0 1 .654.728l-1.242 1.7 4.245-2.451a.5.5 0 0 1 .575.812l-2.213 1.9 4.7-2.712a.5.5 0 0 1 .559.825l-3.939 3.11 6.814-3.935a.5.5 0 0 1 .53.847l-.723.487 2.31-1.334a.5.5 0 0 1 .529.847l-2.631 1.767 4.528-2.614a.5.5 0 0 1 .524.851l-1.992 1.3 3.726-2.15a.5.5 0 0 1 .529.847l-7.575 5.1 10.3-5.947a.5.5 0 0 1 .521.852l-6.277 4.062 8.417-4.86a.5.5 0 0 1 .521.854l-8.008 5.15 9.028-5.212a.5.5 0 0 1 .515.858l-1.873 1.167 1.977-1.142a.5.5 0 0 1 .519.855l-8.552 5.454 8.307-4.8a.5.5 0 0 1 .514.856l-3.726 2.33 3.212-1.854a.5.5 0 0 1 .524.85l-13.65 8.984 13.125-7.574a.5.5 0 0 1 .524.85l-13.481 8.86L58.72 27.66a.5.5 0 0 1 .517.856l-7.3 4.623 6.783-3.916a.5.5 0 0 1 .524.85L46.16 38.644l12.56-7.251a.5.5 0 0 1 .522.851L46.89 40.291l11.83-6.83a.5.5 0 0 1 .523.852L46.65 42.529l12.07-6.967a.5.5 0 0 1 .52.852l-10.607 6.831 10.087-5.823a.5.5 0 0 1 .521.852L48.206 45.4l10.514-6.071a.5.5 0 0 1 .516.856l-6.418 4.054 5.9-3.407a.5.5 0 0 1 .524.851L47.223 49.59l11.5-6.638a.5.5 0 0 1 .525.85l-9.557 6.3 9.032-5.214a.5.5 0 0 1 .526.849l-7 4.631 6.469-3.734a.5.5 0 0 1 .519.853l-.439.282a.5.5 0 0 1 .464.875l-7.1 5.173 6.56-3.787a.5.5 0 0 1 .528.848l-.414.277a.5.5 0 0 1 .453.868l-4.212 3.454 3.645-2.105a.5.5 0 0 1 .58.808l-2.088 1.837 1.508-.871a.5.5 0 0 1 .643.741l-1.085 1.387a.5.5 0 0 1 .358.921l-2.05 1.184a.5.5 0 0 1-.644-.74l1.044-1.339-3.639 2.1a.5.5 0 0 1-.58-.807l2.087-1.837-4.581 2.644a.5.5 0 0 1-.567-.819l4.213-3.453L46.52 59.4a.5.5 0 0 1-.529-.847l.221-.149-1.726 1a.5.5 0 0 1-.544-.837l7.1-5.172L40.635 59.4a.5.5 0 0 1-.25.07z" opacity="1" data-original="#496f7c" class=""></path><path fill="#ffffff" d="M44.706 31.47a.5.5 0 0 1-.284-.911l.021-.016-1.488.859a.5.5 0 0 1-.55-.833l3.9-2.918L39.8 31.4a.5.5 0 0 1-.551-.832l3.974-2.988-6.615 3.82a.5.5 0 0 1-.561-.823l4.753-3.789-5.52 3.184a.5.5 0 0 1-.539-.841l.472-.335a.5.5 0 0 1-.481-.867l.362-.267a.508.508 0 0 1-.446-.173.5.5 0 0 1 0-.64L36.3 24.84l-1.015.585a.5.5 0 0 1-.675-.7l.339-.548a.5.5 0 0 1-.111-.913l1.161-.67a.5.5 0 0 1 .675.7l-.168.273 1.678-.968a.5.5 0 0 1 .636.75l-1.651 2.008 4.774-2.757a.5.5 0 0 1 .548.835l-.091.065 1.56-.9a.5.5 0 0 1 .539.84l-.422.3 1.977-1.14a.5.5 0 0 1 .561.823l-4.75 3.792 8-4.615a.5.5 0 0 1 .551.832l-3.974 2.988 6.619-3.82a.5.5 0 0 1 .549.833l-3.894 2.916 5-2.884a.5.5 0 0 1 .534.844l-.352.244a.5.5 0 0 1 .413.866L52.3 28.1l2.425-1.4a.5.5 0 0 1 .593.8l-.963.911.37-.214a.5.5 0 0 1 .694.663l-.489.947a.5.5 0 0 1 .242.932l-1.16.67a.5.5 0 0 1-.7-.662l.43-.831-2.587 1.484a.5.5 0 0 1-.593-.8l.964-.911-2.958 1.711a.5.5 0 0 1-.583-.8l3.008-2.68-6.037 3.48a.493.493 0 0 1-.25.07z" opacity="1" data-original="#4d97ff" class=""></path><path fill="#ffffff" d="M36.009 39.47a.5.5 0 0 1-.39-.814l1.13-1.4-1.469.844a.5.5 0 0 1-.7-.642l.581-1.264a.5.5 0 0 1-.324-.926l1.161-.67a.5.5 0 0 1 .7.641l-.556 1.209 2.422-1.4a.5.5 0 0 1 .64.746l-1.13 1.4.646-.372a.5.5 0 0 1 .5.865L36.259 39.4a.49.49 0 0 1-.25.07zM45.757 39.47a.5.5 0 0 1-.423-.767l.138-.22-1.508.871a.5.5 0 0 1-.613-.776l.8-.841-.867.5a.5.5 0 0 1-.708-.633l.619-1.416a.5.5 0 0 1-.358-.92l1.161-.67a.5.5 0 0 1 .708.632l-.6 1.38 2.526-1.458a.5.5 0 0 1 .613.777l-.8.839.277-.16a.5.5 0 0 1 .61.086.5.5 0 0 1 .063.614l-.325.515a.5.5 0 0 1 .1.909l-1.16.67a.49.49 0 0 1-.253.068zM53.757 39.47a.5.5 0 0 1-.429-.758l.216-.358-1.675.966a.5.5 0 0 1-.616-.772l.923-1-.9.516a.5.5 0 0 1-.7-.643l.572-1.23a.506.506 0 0 1-.5-.246.5.5 0 0 1 .183-.682l1.161-.67a.5.5 0 0 1 .7.643l-.545 1.17 2.4-1.384a.5.5 0 0 1 .616.773l-.924 1 .478-.275a.5.5 0 0 1 .678.69l-.363.6a.5.5 0 0 1 .132.918l-1.16.67a.49.49 0 0 1-.247.072zM37.5 47.47a.5.5 0 0 1-.442-.734l.658-1.248-2.347 1.355a.5.5 0 0 1-.6-.788l.56-.555-.051.029a.5.5 0 0 1-.68-.685l.383-.654a.5.5 0 0 1-.15-.922l1.161-.67a.5.5 0 0 1 .681.685l-.254.434 1.764-1.017a.5.5 0 0 1 .6.788l-.556.552.492-.284a.5.5 0 0 1 .692.666l-.661 1.253a.5.5 0 0 1 .454.889l-1.451.838a.49.49 0 0 1-.253.068zM45.757 47.47a.5.5 0 0 1-.43-.755l.237-.4-1.725 1a.5.5 0 0 1-.653-.729l1.36-1.852-1.266.73a.5.5 0 0 1-.676-.692l.353-.582a.505.505 0 0 1-.307-.235.5.5 0 0 1 .183-.682l1.161-.67a.5.5 0 0 1 .677.692l-.2.326 1.636-.944a.5.5 0 0 1 .654.728L45.4 45.253l1.318-.761a.5.5 0 0 1 .679.688l-.374.632a.5.5 0 0 1 .142.92l-1.16.67a.49.49 0 0 1-.248.068zM37.757 55.47a.5.5 0 0 1-.426-.763l.173-.279-1.58.912a.5.5 0 0 1-.636-.751l1.216-1.47-1.224.706a.5.5 0 0 1-.694-.661l.5-.964a.5.5 0 0 1-.248-.932l1.161-.67a.5.5 0 0 1 .694.661l-.437.851 2.159-1.246a.5.5 0 0 1 .636.751l-1.221 1.469.89-.513a.5.5 0 0 1 .608.084.5.5 0 0 1 .068.612l-.341.552a.5.5 0 0 1 .112.913l-1.16.67a.49.49 0 0 1-.25.068zM44.2 55.47a.5.5 0 0 1-.353-.854l.1-.1-.567.327a.5.5 0 0 1-.589-.8l.3-.278a.506.506 0 0 1-.4-.139.5.5 0 0 1-.091-.6l.451-.834a.5.5 0 0 1-.209-.93l1.161-.67a.5.5 0 0 1 .69.671l-.371.684 2.013-1.162a.5.5 0 0 1 .589.8l-.164.151a.5.5 0 0 1 .615.146.5.5 0 0 1-.043.658l-.332.33a.5.5 0 0 1 .22.932l-2.773 1.6a.49.49 0 0 1-.247.068z" opacity="1" data-original="#6593a0" class=""></path><path fill="#ffffff" d="M53.757 55.47a.5.5 0 0 1-.437-.743l.332-.6-1.926 1.112a.5.5 0 0 1-.592-.8l.339-.318-.193.11a.5.5 0 0 1-.62-.768l1.784-1.964-1.164.672a.5.5 0 0 1-.6-.79l1.105-1.082-.506.292a.5.5 0 0 1-.622-.767l1.843-2.052-1.223.707a.5.5 0 0 1-.587-.8l.552-.505a.5.5 0 0 1-.556-.817l.486-.453a.494.494 0 0 1-.488-.115.5.5 0 0 1-.1-.59l.506-1h-.007a.5.5 0 0 1-.25-.932l1.161-.67a.5.5 0 0 1 .7.659l-.453.892 2.194-1.265a.5.5 0 0 1 .59.8l-.438.41.137-.079a.5.5 0 0 1 .587.8l-.554.507a.5.5 0 0 1 .589.784L53.5 48.163l1.223-.706a.5.5 0 0 1 .6.79l-1.105 1.082.506-.292a.5.5 0 0 1 .62.769l-1.783 1.962 1.159-.668a.5.5 0 0 1 .592.8l-.433.406a.506.506 0 0 1 .441.136.5.5 0 0 1 .086.6l-.427.769a.5.5 0 0 1 .188.928l-1.16.67a.49.49 0 0 1-.25.061z" opacity="1" data-original="#32525b" class=""></path><g fill="#262626"><path d="M.276 50.9A4.644 4.644 0 0 0 5.1 55.557c8.393.053 16.787-.028 25.181 0-.2 4.678 5.072 3.833 8.27 3.823h16.043c2.662.265 5.2-1.148 5.13-4.033-.067-11.154.114-22.318 0-33.468-.093-2.29-1.934-3.259-3.99-3.259q-7.007 0-14.011-.023V7.752C41.519 5.321 42.9.7 39.162.711 28 .572 16.836.745 5.676.717 5.526.561 4.982.615 4.615.8A4.688 4.688 0 0 0 .276 5.884C.343 20.886.174 35.918.276 50.9zm30-23.2H16.322c-1.789 0-5.4.709-5.6-1.891-.147-1.983 0-4.032 0-6.019v-8.867c0-.817-.158-2.28.823-2.62 7.221-.017 14.552 0 21.806 0 3.326-.055 1.469 7.913 1.923 10.315-6.019-.392-5 4.882-4.998 9.082zm13.062-8.32c20.173.152 13.931-3.816 14.938 25.467-.456 2.762 1.552 13.839-1.985 13.773H36.84c-1.565 0-3.537.34-4.586-1.122-1.067-1.927-.327-4.4-.53-6.524V31.181C31.639 17.645 29.8 19.382 43.338 19.38zM5.724 1.231c2.073-.082 4.2.058 6.253.058h24.88c3.412-.471 3.661 1.469 3.418 4.311v13c-1.184 0-2.368 0-3.552.011v-7.837c.184-2.321-1.206-3.4-3.492-3.077H14.853c-1.808 0-4.724-.377-5.466 1.8-.332 5.24 0 10.612-.112 15.9 0 1.153.143 2.288 1.413 2.754 6.465.433 13.074.015 19.588.156V32.6H11.284c-.536 0-1.542.808-.568.808h19.56v13.035c-8.184.005-16.368-.009-24.552.005zm-.778 46.326h25.33v2.906c-.924.176-2.571-.494-3.011.59.26.965 2.2.3 3.011.484v2.906H6.846c-1.667 0-3.3.133-4.43-1.435a3.419 3.419 0 0 1 2.53-5.451zm-.67-46.219V46.6a5.34 5.34 0 0 0-2.552 1.2V7.94c0-2.28-.449-6.093 2.552-6.602z" fill="#1e1e1e" opacity="1" data-original="#262626" class=""></path><path d="M34.266 27.155c.073 1.6-.651 4.425 1.774 4.377 5.964.025 11.931-.016 17.9 0 2.719-.34 1.566-3.765 1.8-5.665a6.486 6.486 0 0 0-.146-2.566c-.362-.742-1.133-.831-1.863-.833-4.332-.013-8.663 0-13 0-4.465.081-7.159-1.246-6.465 4.687zm1.468-3.105c.1-.584.212-.518.671-.518H53.4c1.651-.037.6 3.111.87 4.217 0 .21.214 2.663-.2 2.719-5.885-.014-11.785.02-17.661 0-.483-.063-.651-.275-.669-.814.033-1.854-.125-3.765-.006-5.604zM39.341 34.969c-1.2-.722-4.942-.826-5.067 1.117-.036 1.65-.325 3.622 2 3.342 1.26.035 3.335.133 3.449-1.563-.106-.953.317-2.118-.382-2.896zm-3.387.389a.2.2 0 0 0-.031.028c.009-.009.019-.019.031-.028zm-.21.07h.041a.338.338 0 0 0-.058 0zm2.375 3.144c-.622 0-1.246-.006-1.867 0-.012 0-.063-.017-.072-.018a.713.713 0 0 1-.433-.537c-.005-.026-.015-.121-.019-.141a7.4 7.4 0 0 1 .152-2.451h.7a8.763 8.763 0 0 1 1.3.044.785.785 0 0 1 .388.73c-.078.769.199 1.677-.149 2.373zM45.679 34.546c-3.434-.346-3.935 1.308-3.185 4.3.405.616 1.141.609 1.79.609 1.283.048 3.336.145 3.444-1.588.049-1.667.277-3.598-2.049-3.321zm-1.84.908H43.811zm2.391 2.918a.709.709 0 0 1-.107.174h-1.591c-.149.011-.417-.027-.312 0a.752.752 0 0 1-.492-.86c.078-.714-.181-1.593.15-2.234h1.9a.71.71 0 0 1 .492.763 20.23 20.23 0 0 1-.04 2.157zM53.724 34.647c-1.255-.039-3.317-.134-3.448 1.547-.023 1.673-.346 3.421 1.981 3.16 1.273.036 3.365.128 3.467-1.585.021-1.669.326-3.406-2-3.122zm-1.777.632h.005a.056.056 0 0 0 .021-.006l-.022.008-.016.019.015-.019zm2.165 3.367H52.3c.147.008-.042-.023.009 0a.937.937 0 0 1-.583-1.046c.084-.731-.2-1.588.171-2.244h.668c.376 0 .754-.015 1.13 0a.884.884 0 0 1 .579.935c-.082.767.197 1.658-.162 2.355zM37.5 42.5c-1.236-.078-3.119-.054-3.231 1.57-.021 1.359-.325 3.552 1.665 3.436 1.386.005 3.677.3 3.8-1.629.085-1.794.186-3.708-2.234-3.377zm-1.619 1.005-.037.029.035-.029zm2.361 2.813a.893.893 0 0 1-.118.179c-.6.008-1.193 0-1.79 0h-.14a.512.512 0 0 1-.254-.116.731.731 0 0 1-.2-.413c.005-.755-.046-1.535.024-2.286a1.193 1.193 0 0 0 .063-.118c.075-.146-.034.065.017-.02a.191.191 0 0 1 .039-.042h1.931c-.02 0 .091.01.105.025.085.052-.11-.081.026.013.018.013.085.064.106.077.449.649.149 1.905.19 2.698zM44.263 47.376c1.283.04 3.369.124 3.461-1.607.025-1.672.317-3.415-2-3.145-3.339-.329-3.967 1.16-3.255 4.158.396.627 1.139.594 1.794.594zm-.533-4h.027-.006a.244.244 0 0 0-.042 0 .074.074 0 0 1 .021 0zm.156 0c.618.007 1.244-.016 1.859.006a.867.867 0 0 1 .531.909c-.082.759.193 1.644-.163 2.333h-1.56c-.1 0-.206 0-.306-.007a.933.933 0 0 1-.523-1.019c.082-.726-.191-1.564.162-2.222zM37.672 50.519c-3.455-.375-3.922 1.366-3.175 4.335.409.623 1.137.627 1.8.627 1.294.052 3.34.142 3.438-1.606.048-1.668.265-3.625-2.063-3.356zm-1.776.94.006-.008a.061.061 0 0 1 .04-.006.436.436 0 0 0-.048.018h-.011zm.008.008-.018.006zm-.027 0h-.008zm-.016.016-.02.007a.089.089 0 0 0-.038-.007zm2.382 2.844a.792.792 0 0 1-.121.193h-1.6c-.116 0-.254 0-.354-.007-.059-.022-.137-.055-.065-.015a1.194 1.194 0 0 1-.131-.082c-.441-.384-.178-1.472-.245-2.133.01-.269-.052-.589.149-.8.651.009 1.312-.019 1.96.008l.068.018c.031.028.081.048.118.078.478.555.189 1.902.221 2.738z" fill="#1e1e1e" opacity="1" data-original="#262626" class=""></path><path d="M35.92 51.449a.068.068 0 0 1-.024.01.133.133 0 0 0 .024-.01zM45.71 50.591c-3.369-.347-3.963 1.237-3.233 4.219.4.62 1.144.6 1.8.6 1.3.045 3.382.118 3.452-1.64.047-1.639.25-3.464-2.019-3.179zm-1.971.818h.036a.192.192 0 0 0-.052 0zm2.537 2.37a1.25 1.25 0 0 1-.16.812h-1.86c-.969-.436-.378-1.894-.532-2.748a2.1 2.1 0 0 1 .062-.287.793.793 0 0 1 .095-.146 14.916 14.916 0 0 1 2 .052c.707.488.286 1.58.395 2.317zM52.46 42.657c-1.063-.037-2.364.605-2.184 1.839.022 3.232-.036 6.469 0 9.7.112 1.55 2.364 1.15 3.424 1.15.9-.067 1.988-.49 2.024-1.537-.014-3.332.023-6.671 0-10-.109-1.509-2.224-1.168-3.264-1.152zm-.729 11.23c0-3.505-.064-7.061.032-10.546a5.99 5.99 0 0 1 2.149.114c.525.383.364 1.33.364 1.9.043 3.052-.074 6.382.024 9.305-.871-.151-2.365.478-2.569-.773zM5.939 51.544h18c.837 0 1.1-1.088.122-1.088h-18c-.837 0-1.104 1.088-.122 1.088zM23.49 17.564a1.737 1.737 0 0 1-1.338-.558c-1.292-1.531.64-3.795 1.911-1.711.279.451 1.682-.034 1.339-.59a2.373 2.373 0 0 0-1.678-1.1c-.119-.471.289-1.861-.251-1.891-1.56.03-1.159.836-1.2 1.993a2.386 2.386 0 0 0 .234 4.726c1.692-.168 2.495 2.476.862 3.1a1.5 1.5 0 0 1-1.435-.831c-.279-.451-1.682.034-1.339.59a2.373 2.373 0 0 0 1.678 1.1c.12.473-.289 1.86.251 1.893 1.533-.007 1.172-.86 1.2-2a2.386 2.386 0 0 0-.234-4.721z" fill="#1e1e1e" opacity="1" data-original="#262626" class=""></path></g></g></svg>