<svg xmlns="http://www.w3.org/2000/svg" version="1.1" xmlns:xlink="http://www.w3.org/1999/xlink" width="512" height="512" x="0" y="0" viewBox="0 0 60 60" style="enable-background:new 0 0 512 512" xml:space="preserve" class=""><g><path fill="#ffffff" d="M23.939 59.436a.5.5 0 0 1-.353-.854l.286-.286-1.449.836a.5.5 0 0 1-.611-.778l2.388-2.506-3.372 1.952a.5.5 0 0 1-.58-.808l2.606-2.292-2.554 1.472a.5.5 0 1 1-.5-.865l6.923-4a.5.5 0 0 1 .58.807l-2.606 2.292 2.023-1.166a.5.5 0 0 1 .611.778l-2.393 2.507 1.715-.989a.5.5 0 0 1 .6.786l-.9.9a.5.5 0 0 1 .026.88l-2.2 1.268a.49.49 0 0 1-.24.066z" opacity="1" data-original="#2c5377" class=""></path><path fill="#ffffff" d="M16.109 59.441a.5.5 0 0 1-.307-.893l5.252-4.11-6.741 3.892a.5.5 0 0 1-.672-.166.5.5 0 0 1 .14-.68l2.068-1.413-2.2 1.272a.5.5 0 0 1-.543-.838l5.661-4.093-5.487 3.166a.5.5 0 0 1-.529-.848l1.923-1.294-1.394.8a.5.5 0 0 1-.669-.16.5.5 0 0 1 .124-.677l6.387-4.661-5.842 3.377a.5.5 0 0 1-.539-.841l5.145-3.643-4.606 2.658a.5.5 0 0 1-.531-.846l2.907-1.982-2.376 1.371a.5.5 0 0 1-.527-.849l1.176-.785-.649.374a.5.5 0 0 1-.542-.838l5.88-4.236-5.338 3.082a.5.5 0 0 1-.536-.843l4.262-2.967-3.726 2.15a.5.5 0 0 1-.541-.84l6.531-4.666-5.99 3.457a.5.5 0 0 1-.534-.844l5.91-4.086-5.376 3.1a.5.5 0 0 1-.537-.842l8.164-5.738-7.627 4.4a.5.5 0 0 1-.528-.848l5.794-3.876-5.266 3.04a.5.5 0 0 1-.5-.866l18.375-10.61a.5.5 0 0 1 .529.849l-5.8 3.881 4.247-2.453a.5.5 0 0 1 .537.843l-8.163 5.737 6.3-3.64a.5.5 0 0 1 .534.845l-5.909 4.094 4.27-2.463a.5.5 0 0 1 .541.839L21.716 37.9l5-2.889a.5.5 0 0 1 .536.843l-4.268 2.972 3.732-2.154a.5.5 0 0 1 .542.838l-5.88 4.236 5.338-3.082a.5.5 0 0 1 .527.849l-1.176.785.649-.374a.5.5 0 0 1 .531.846l-2.9 1.977 2.368-1.367a.5.5 0 0 1 .539.841l-5.145 3.643L26.72 43.2a.5.5 0 0 1 .545.837L20.874 48.7l5.846-3.374a.5.5 0 0 1 .529.848l-1.914 1.288 1.385-.8a.5.5 0 0 1 .543.838L21.6 51.6l5.12-2.96a.5.5 0 0 1 .532.845L25.185 50.9l1.535-.886a.5.5 0 0 1 .557.826l-7.251 5.673a.445.445 0 0 1 .091.115.5.5 0 0 1-.182.683l-3.576 2.064a.491.491 0 0 1-.25.066z" opacity="1" data-original="#2c5377" class=""></path><path fill="#ffffff" d="M10.247 38.448a.5.5 0 0 1-.271-.92l5.189-3.358-6.127 3.537a.5.5 0 0 1-.517-.854l4.028-2.559L8.4 36.688a.5.5 0 0 1-.525-.849l12.237-8.093L8.28 34.577a.5.5 0 0 1-.514-.856l2.343-1.464-1.829 1.056a.5.5 0 0 1-.513-.858l1.224-.761-.711.41a.5.5 0 0 1-.526-.849l11.623-7.706L8.28 29.957a.5.5 0 0 1-.525-.851l7.959-5.251-7.434 4.292a.5.5 0 0 1-.537-.842l8.724-6.105-8.187 4.725a.5.5 0 0 1-.524-.851l1.211-.794-.687.4a.5.5 0 0 1-.536-.843l3.68-2.57-3.03 1.749a.5.5 0 0 1-.563-.824l4.269-3.416-2.88 1.662a.5.5 0 0 1-.572-.815l2-1.683a.5.5 0 0 1-.051-.892l3.592-2.074a.5.5 0 0 1 .572.816l-1.117.938 3.691-2.13a.5.5 0 0 1 .562.823l-4.269 3.412 7.339-4.233a.5.5 0 0 1 .536.842l-3.682 2.573 5.915-3.415a.5.5 0 0 1 .525.851l-1.209.792L25.9 14.6a.5.5 0 0 1 .538.842l-8.728 6.106L29.749 14.6a.5.5 0 0 1 .525.85l-7.956 5.25 10.564-6.1a.5.5 0 0 1 .526.849l-11.624 7.704L35.389 15.3a.5.5 0 0 1 .513.858l-1.236.767a.5.5 0 0 1 .5.865l-2.346 1.465 1.063-.614a.5.5 0 0 1 .525.85l-12.233 8.09 10.386-6a.5.5 0 0 1 .517.855L29.047 25l2.671-1.542a.5.5 0 0 1 .521.854l-19 12.295a.5.5 0 0 1-.239.328l-2.5 1.446a.491.491 0 0 1-.253.067z" opacity="1" data-original="#2c5377" class=""></path><path fill="#ffffff" d="M19.917 15.467a.5.5 0 0 1-.323-.882l1.768-1.5-3.3 1.9a.5.5 0 0 1-.556-.827l2.406-1.871-3.273 1.893a.5.5 0 0 1-.549-.834l2.7-2.012-3.19 1.841a.5.5 0 0 1-.54-.841l1.656-1.173-1.764 1.019a.5.5 0 0 1-.556-.829l4.429-3.421-4.445 2.57a.5.5 0 0 1-.535-.844l.385-.268a.5.5 0 0 1-.515-.845l3.955-3.221-3.382 1.952a.5.5 0 0 1-.559-.826l1.664-1.3-.832.48a.5.5 0 0 1-.59-.8l1.561-1.451a.5.5 0 0 1-.109-.913L18.358.768a.5.5 0 0 1 .59.8l-1.048.978L21.026.738a.5.5 0 0 1 .559.826l-1.662 1.3L22.6 1.321a.5.5 0 0 1 .565.821L19.21 5.358l4.918-2.839a.5.5 0 0 1 .535.843l-.359.25.466-.269a.5.5 0 0 1 .555.828L20.9 7.593l4.59-2.652a.5.5 0 0 1 .539.841l-1.657 1.175L25.7 6.19a.5.5 0 0 1 .549.834l-2.694 2.008 2.165-1.25a.5.5 0 0 1 .556.827l-2.41 1.874 1.781-1.028a.5.5 0 0 1 .574.815l-1.767 1.5.507-.293a.5.5 0 1 1 .5.866L20.167 15.4a.5.5 0 0 1-.25.067z" opacity="1" data-original="#2c5377" class=""></path><path fill="#ffffff" d="M19.173 29.121a.5.5 0 0 1-.356-.852l.96-.968-1.6.925a.5.5 0 0 1-.6-.791l1.78-1.744-2.057 1.187a.5.5 0 0 1-.572-.815l1-.839-.223.128a.5.5 0 0 1-.57-.817l.592-.494a.5.5 0 0 1-.453-.837L19 21.2l-1.026.592a.5.5 0 0 1-.722-.6l.492-1.414a.491.491 0 0 1-.187-.186.5.5 0 0 1 .182-.683l.547-.316a.5.5 0 0 1 .722.6l-.369 1.06 2.909-1.679a.5.5 0 0 1 .61.779l-1.925 2 1.727-1a.5.5 0 0 1 .57.818l-.464.386.048-.028a.5.5 0 0 1 .573.816l-1 .841.6-.346a.5.5 0 0 1 .6.791L21.1 25.38l1.406-.812a.5.5 0 0 1 .6.786l-.961.969.545-.315a.5.5 0 0 1 .5.867l-3.776 2.179a.5.5 0 0 1-.241.067z" opacity="1" data-original="#e1c953" class=""></path><path fill="#ffffff" d="M19.786 19.483a.5.5 0 0 1-.384-.82l1.327-1.591-2.656 1.533a.5.5 0 0 1-.632-.756l.822-.969-.542.313a.5.5 0 0 1-.75-.454l.041-.965a.5.5 0 0 1-.16-.924l.442-.256a.5.5 0 0 1 .75.454l-.035.824 2.244-1.3a.5.5 0 0 1 .632.757l-.822.968 2.6-1.5a.5.5 0 0 1 .634.754l-1.326 1.59.139-.081a.5.5 0 0 1 .5.867l-2.573 1.486a.508.508 0 0 1-.251.07z" opacity="1" data-original="#fbe267" class=""></path><g fill="#22425b"><path d="M37.791 15.347a.5.5 0 0 1-.308-.894l1.5-1.168-2.491 1.439a.5.5 0 0 1-.571-.817l4.334-3.632-5.44 3.142a.5.5 0 0 1-.561-.825l4.743-3.764-5.208 3.007a.5.5 0 0 1-.559-.825l4.792-3.788-4.716 2.721a.5.5 0 0 1-.555-.83l3.436-2.634-2.907 1.678a.5.5 0 0 1-.58-.809l3.606-3.163L33.513 5.8a.5.5 0 0 1-.6-.794L34.6 3.39a.5.5 0 0 1-.179-.929L37.358.767a.5.5 0 0 1 .6.794L36.6 2.864 40.2.782a.5.5 0 0 1 .58.809l-3.606 3.163 5.14-2.968a.5.5 0 0 1 .555.83l-3.437 2.635L43.47 2.92a.5.5 0 0 1 .559.825l-4.791 3.787 5.132-2.963a.5.5 0 0 1 .561.825l-4.744 3.764 4.532-2.616a.5.5 0 0 1 .571.816l-4.333 3.631 3.75-2.165a.5.5 0 0 1 .558.827l-1.5 1.169.646-.374a.5.5 0 0 1 .588.8l-1.51 1.386a.493.493 0 0 1 .268.222.5.5 0 0 1-.183.683l-2.934 1.694a.5.5 0 0 1-.588-.8l.921-.846-2.932 1.695a.491.491 0 0 1-.25.067zM42.621 59.462a.5.5 0 0 1-.355-.852l.718-.726-1.89 1.092a.5.5 0 0 1-.581-.808l1.4-1.238-1.92 1.107a.5.5 0 0 1-.593-.8l3.1-2.909-3.2 1.847a.5.5 0 1 1-.5-.865l6.923-4a.5.5 0 0 1 .592.8l-3.095 2.913 2.5-1.444a.5.5 0 0 1 .581.808l-1.4 1.237.814-.469a.5.5 0 0 1 .605.784l-.888.9h.006a.5.5 0 0 1 .25.933L42.871 59.4a.5.5 0 0 1-.25.062zM48.3 38.454a.5.5 0 0 1-.375-.83l.657-.747-1.507.869a.5.5 0 0 1-.614-.774l1.824-1.943-1.985 1.147a.5.5 0 1 1-.5-.865l4.92-2.841a.5.5 0 0 1 .614.774l-1.824 1.944 1.21-.7a.5.5 0 0 1 .625.763l-.712.811a.5.5 0 0 1 .346.922l-2.427 1.4a.489.489 0 0 1-.252.07z" fill="#ffffff" opacity="1" data-original="#22425b" class=""></path><path d="M35.99 59.435a.5.5 0 0 1-.3-.9l3.291-2.466-4.966 2.868a.5.5 0 0 1-.548-.834l5.244-3.9-5.971 3.45a.5.5 0 0 1-.549-.833l6.66-4.968-6.571 3.793a.5.5 0 0 1-.532-.846l3.14-2.148-2.608 1.5a.5.5 0 0 1-.547-.835l6.759-4.985-6.212 3.591a.5.5 0 0 1-.529-.848l1.825-1.227-1.3.748a.5.5 0 0 1-.528-.849l1.371-.917-.843.486a.5.5 0 0 1-.526-.849l.46-.3a.5.5 0 0 1-.478-.869L38 42.733l-5.722 3.3a.5.5 0 0 1-.534-.844l3.782-2.613-3.246 1.879a.5.5 0 0 1-.522-.851l2.989-1.943-2.467 1.424a.5.5 0 0 1-.525-.85l5.033-3.324-4.508 2.6a.5.5 0 0 1-.534-.844l8.754-6.046-8.22 4.748a.5.5 0 0 1-.523-.851l3.443-2.244-2.92 1.685a.5.5 0 0 1-.528-.848l6.628-4.448-6.1 3.522a.5.5 0 0 1-.5-.866l18.94-10.935a.5.5 0 0 1 .528.848l-6.625 4.446 6.1-3.52a.5.5 0 0 1 .523.852L47.8 29.257l2.925-1.689a.5.5 0 0 1 .534.845L42.5 34.46l8.222-4.748a.5.5 0 0 1 .525.851l-5.047 3.33 4.517-2.608a.5.5 0 0 1 .522.852l-5.158 3.351a.5.5 0 0 1 .17.9l-3.775 2.608 3.241-1.871a.5.5 0 0 1 .544.837l-6.27 4.561 5.726-3.3a.5.5 0 0 1 .526.849l-.456.3a.5.5 0 0 1 .458.883l-1.371.917.843-.486a.5.5 0 0 1 .529.847l-1.835 1.234 1.306-.753a.5.5 0 0 1 .547.835l-6.755 4.982 6.208-3.584a.5.5 0 0 1 .532.846l-3.14 2.147 2.611-1.51a.5.5 0 0 1 .549.833l-6.663 4.972 6.114-3.529a.5.5 0 0 1 .548.834l-5.243 3.893 4.7-2.71a.5.5 0 0 1 .55.833l-7.562 5.667a.5.5 0 0 1-.235.555l-2.238 1.289a.493.493 0 0 1-.25.068z" fill="#ffffff" opacity="1" data-original="#22425b" class=""></path><path d="M28.5 38.251a.5.5 0 0 1-.281-.913l11.066-7.52L27.4 36.679a.5.5 0 0 1-.518-.855l3.862-2.457-3.461 2a.5.5 0 0 1-.525-.849l8.79-5.794-8.268 4.768a.5.5 0 0 1-.529-.847l9.836-6.619L27.28 31.4a.5.5 0 0 1-.527-.849l7.641-5.083-7.114 4.106a.5.5 0 0 1-.522-.853l3.442-2.229-2.92 1.683a.5.5 0 0 1-.533-.844l7.017-4.831-6.484 3.743a.5.5 0 0 1-.538-.842l6.089-4.29-5.546 3.2a.5.5 0 0 1-.547-.835l4.793-3.532-3.98 2.3a.5.5 0 0 1-.542-.839l1.265-.908-.11.063a.5.5 0 0 1-.574-.813l2.1-1.793a.491.491 0 0 1-.271-.224.5.5 0 0 1 .183-.683l3.591-2.074a.5.5 0 0 1 .575.814l-1.389 1.185 4.114-2.372a.5.5 0 0 1 .542.839l-1.26.9L38.8 14.6a.5.5 0 0 1 .547.836l-4.8 3.534 7.375-4.258a.5.5 0 0 1 .538.842l-6.085 4.288 7.806-4.507a.5.5 0 0 1 .533.845l-7.02 4.832 8.752-5.052a.5.5 0 0 1 .523.852l-3.44 2.231 4-2.312a.5.5 0 0 1 .528.849l-7.64 5.082 8.266-4.772a.5.5 0 0 1 .529.848l-9.829 6.612 10.3-5.949a.5.5 0 0 1 .525.85l-8.8 5.8 8.9-5.137a.5.5 0 0 1 .519.855l-3.862 2.457 3.632-2.1a.5.5 0 0 1 .531.847l-18.69 12.7a.5.5 0 0 1-.243.516l-3.453 1.994a.5.5 0 0 1-.242.068z" fill="#ffffff" opacity="1" data-original="#22425b" class=""></path></g><path fill="#ffffff" d="M38.406 29.275a.5.5 0 0 1-.392-.81l1.686-2.143-2.884 1.665a.5.5 0 0 1-.589-.8l1.6-1.47-1.487.859a.5.5 0 0 1-.566-.821l.577-.469a.507.507 0 0 1-.493-.207.5.5 0 0 1 .088-.67l.62-.519a.5.5 0 0 1-.5-.81l1.863-2.2-.912.527a.5.5 0 0 1-.716-.615l.4-1.036a.482.482 0 0 1-.156-.167.5.5 0 0 1 .182-.683l.547-.316a.5.5 0 0 1 .716.615l-.243.624 2.174-1.256a.5.5 0 0 1 .631.757l-1.864 2.2 2.243-1.295a.5.5 0 0 1 .572.816l-.525.439.11-.063a.5.5 0 0 1 .565.821l-.426.348.014-.009a.5.5 0 0 1 .589.8l-1.6 1.469 1.216-.7a.5.5 0 0 1 .643.743L40.4 27.042l1.306-.754a.5.5 0 0 1 .5.866l-3.559 2.055a.5.5 0 0 1-.241.066z" opacity="1" data-original="#e1c953" class=""></path><path fill="#ffffff" d="M39.123 19.481a.5.5 0 0 1-.4-.8l1.362-1.84-3.016 1.741a.5.5 0 0 1-.6-.792l.33-.318h-.009a.506.506 0 0 1-.5 0 .5.5 0 0 1-.25-.434v-1.259a.5.5 0 0 1-.191-.929l.442-.256a.5.5 0 0 1 .75.433v1.152l2.784-1.608a.5.5 0 0 1 .6.793l-.331.319 1.575-.909a.5.5 0 0 1 .651.731l-1.362 1.839.1-.056a.5.5 0 0 1 .5.866l-2.182 1.26a.5.5 0 0 1-.253.067z" opacity="1" data-original="#fbe267" class=""></path><path fill="#ffffff" d="M43.365 20.379a.5.5 0 0 1-.37-.836l1.162-1.282-2.06 1.19a.5.5 0 0 1-.635-.752l1.685-2.035L41.3 17.73a.5.5 0 0 1-.648-.736l.819-1.075a.5.5 0 0 1-.25-.933l1.807-1.044a.5.5 0 0 1 .648.737l-.716.939 2.1-1.213a.5.5 0 0 1 .634.752l-1.685 2.036 2.412-1.393a.5.5 0 0 1 .62.769l-1.163 1.283.763-.44a.5.5 0 0 1 .5.866l-3.526 2.036a.508.508 0 0 1-.25.065z" opacity="1" data-original="#2c5377" class=""></path><path fill="#1e1e1e" d="M7.545 36.809c.915 1.926 3.205 1.99 4.729.962.87 5.473-3.741 28.3 7.626 19.864 11.2 8.385 7.145-14.1 7.826-19.582a3.415 3.415 0 0 0 3.545-.18c.875 5.5-3.759 28.259 7.635 19.779a4.382 4.382 0 0 0 6.175.9c3.687-5.1.759-14.279 1.648-20.54 7.84 2.392 4.277-9.743 5-14.082-.123-4.43-4.229-10.48-9.019-9.836 7.217-4.645.963-17.334-7.133-12.379-4.588 2.39-4.564 10.541.016 12.845-4.071-.048-8.192.118-12.242-.06 7.6-4.311 1.729-17.893-6.683-13.029-4.673 2.463-4.682 10.68-.1 13.151-11.237.751-9.774 14.107-9.023 22.187zm42.726-12.648c-.4 4.209.877 9.032-.6 12.942-1.424 1.378-2.847-.517-2.951-1.8.8-12.907-1.926-17.631-1.449-1.059-.737 7.69 1.6 16.527-1.007 23.672-2.025 1.731-4.384-.4-4.536-2.542.717-21.633-2.208-20.471-1.461.2-.067 4.027-5.629 3.581-5.542-.271q-.015-15.757-.005-31.5c-2.919-1.533-.872 9.847-1.454 11.767-.1 1.472-1.575 2.658-2.872 1.4-1.566-3.1-.266-7.166-.67-10.6-.689-5.028 2.119-10.574 7.626-10.859 2.254 3.989-1.268 9.079.656 12.414 1.684 1.594 3.663 1.752 5.381.095 2.767-1.568.282-5.592.471-8.165a4.169 4.169 0 0 0 5.742-1.95 8.868 8.868 0 0 1 2.671 6.256zm-11.063 4.472c-4.195-1.494-1.582-5.929-1.561-9.238H40.3c-.153 3.099 2.773 7.779-1.092 9.238zm-.1.089a1.055 1.055 0 0 1-.091.071.146.146 0 0 1 .083-.071zm1.386-10.474-.09.357h-2.73l-.786-3.144c1.289-.009 2.578 0 3.867 0a3.159 3.159 0 0 0-.264 2.787zm2.385-3.492c2.513-.536 4.843 3.275 2.146 4.666-2.51 1.082-4.468-3.012-2.47-4.511a1.174 1.174 0 0 1 .321-.155zm-9.152-5.95C32.146.668 42.976-1.678 44.249 6.617c2.007 8.712-9.692 11.305-10.525 2.189zM20.2 28.588c-4.153-1.409-1.582-5.809-1.56-9.047h2.685c-.14 3.052 2.703 7.624-1.125 9.047zm1.218-10.129h-2.78l-.757-3.025c1.431.014 2.858 0 4.288 0l-.755 3.025zm-6.69-9.536c-1.545-7.8 8.993-10.556 10.5-2.5 1.952 8.666-9.385 11.592-10.5 2.5zM9.447 20.4a8.1 8.1 0 0 1 6.893-4.945c2.782 4.992-3.188 11.765 2.913 13.864 8.181-.648 1.676-8.918 4.36-13.881h8.456c-4.876 1.929-6.307 7.271-5.8 12.074-.043 9.2.089 18.392 0 27.587.2 4.491-5.248 4.445-5.55.205-.586-1.872 1.5-18.421-1.448-15.11-.969 3.786 2.941 20.6-3.914 17.972-2.258-1.4-1.545-4.34-1.636-6.574V23.805c0-.269-1.448-.054-1.448.388-.418 4.209.882 9.03-.591 12.936C6.9 40.553 8.625 22.458 9.447 20.4z" opacity="1" data-original="#262626" class=""></path></g></svg>