<svg width="40" height="40" viewBox="0 0 40 40" fill="none" xmlns="http://www.w3.org/2000/svg">
<path d="M14.0289 19.8105C13.255 18.9674 12.57 18.0468 11.9847 17.0632C9.6031 13.0933 10.784 7.89058 10.784 7.89058C15.6277 6.74722 20.257 8.15816 23.5918 11.7703C24.6199 11.5195 26.3922 11.7023 28.1586 13.3011L25.9711 15.307C26.7478 16.8927 27.2975 18.5798 27.6039 20.3187C27.6039 20.3187 28.0613 23.0605 27.7386 24.9796C27.3578 28.0265 25.9808 31.025 23.134 33.4836C23.134 33.4836 21.3133 29.2375 16.6301 29.555C19.9535 27.3515 24.4941 29.1011 23.1926 26.398C22.4379 24.8324 20.1707 24.2371 17.6008 22.6871" fill="white"/>
<path d="M14.0293 19.8098C14.0293 19.8098 12.8062 22.1872 13.5379 23.4575C13.7441 23.8153 14.5222 23.2497 15.4519 23.3458C16.5066 23.4547 17.2703 24.1086 17.4613 23.5856C17.8738 22.4559 17.3355 20.6872 16.282 20.2989" fill="white"/>
<path d="M14.1521 10.2509C14.0434 10.2701 13.932 10.2678 13.8242 10.244C13.7164 10.2202 13.6144 10.1754 13.5239 10.1122C13.4334 10.0489 13.3563 9.96849 13.2969 9.87543C13.2375 9.78238 13.197 9.67854 13.1777 9.56984C13.1584 9.46114 13.1608 9.34972 13.1846 9.24192C13.2084 9.13412 13.2532 9.03207 13.3164 8.94159C13.3797 8.8511 13.4601 8.77396 13.5532 8.71457C13.6462 8.65517 13.75 8.61469 13.8587 8.59542C14.0783 8.55652 14.3043 8.60641 14.487 8.73413C14.6697 8.86185 14.7943 9.05693 14.8332 9.27645C14.8721 9.49598 14.8222 9.72197 14.6945 9.90471C14.5667 10.0874 14.3717 10.212 14.1521 10.2509Z" fill="#1E1E1E"/>
<path d="M29.2473 23.2786H29.2441C29.1033 23.2788 28.9682 23.2232 28.8682 23.1241C28.7683 23.0249 28.7118 22.8901 28.7109 22.7493C28.7109 22.4759 28.7008 22.1978 28.6851 21.9216C28.6812 21.8518 28.6911 21.7819 28.7142 21.7159C28.7373 21.65 28.7732 21.5892 28.8198 21.5371C28.8664 21.485 28.9228 21.4426 28.9858 21.4123C29.0488 21.382 29.1171 21.3643 29.1869 21.3604C29.2567 21.3565 29.3266 21.3664 29.3925 21.3895C29.4585 21.4126 29.5193 21.4485 29.5714 21.4951C29.6235 21.5417 29.6659 21.5981 29.6962 21.6611C29.7265 21.7241 29.7441 21.7924 29.748 21.8622C29.7644 22.156 29.7738 22.4524 29.7754 22.7435C29.7762 22.8844 29.7211 23.02 29.622 23.1203C29.523 23.2206 29.3882 23.2776 29.2473 23.2786Z" fill="#1E1E1E"/>
<path d="M11.3672 16.052C11.2987 15.9787 11.2525 15.8874 11.234 15.7888C10.1953 13.6642 9.96095 11.3579 9.96095 9.71923C9.95822 7.7415 10.277 6.31533 10.2903 6.25556C10.3124 6.15844 10.3613 6.06947 10.4314 5.99876C10.5016 5.92805 10.5902 5.87844 10.6871 5.85556C13.3824 5.21962 16.0074 5.27939 18.4922 6.0333C20.8817 6.75791 23.0121 8.08603 24.8274 9.98486C25.4801 9.88252 26.2207 9.93134 26.9477 10.1278C27.9985 10.4118 29.0024 10.9821 29.9313 11.8228C29.9862 11.8724 30.0301 11.933 30.0603 12.0006C30.0905 12.0683 30.1062 12.1415 30.1064 12.2155C30.1067 12.2896 30.0915 12.3628 30.0618 12.4307C30.0321 12.4985 29.9886 12.5594 29.934 12.6095L27.8637 14.5099C28.6368 16.1617 29.1877 17.9087 29.502 19.7052C29.5261 19.8443 29.4939 19.9872 29.4126 20.1026C29.3313 20.218 29.2075 20.2963 29.0684 20.3204C28.9293 20.3445 28.7863 20.3123 28.671 20.231C28.5556 20.1497 28.4772 20.0259 28.4531 19.8868C28.1287 18.0584 27.5502 16.2843 26.7344 14.6161C26.684 14.5132 26.6682 14.3968 26.6893 14.2842C26.7105 14.1716 26.7674 14.0688 26.8516 13.9911L28.7656 12.2333C27.2348 11.047 25.7219 10.8458 24.7656 11.079C24.6733 11.1015 24.5767 11.0988 24.4858 11.0713C24.3948 11.0439 24.3129 10.9926 24.2485 10.9227C23.1547 9.73994 21.9395 8.78486 20.6121 8.06533C20.2719 9.40166 19.1559 11.1431 17.6102 12.722C16 14.3712 14.2055 15.547 12.5805 16.0376C13.1901 17.0563 13.9015 18.0107 14.7035 18.886C14.7145 18.898 14.7249 18.911 14.7348 18.9251L14.7391 18.931C14.7477 18.9424 14.7556 18.9543 14.7629 18.9665L14.7695 18.9774C14.7758 18.988 14.7817 18.9989 14.7871 19.0099L14.7949 19.0255C14.7992 19.0352 14.8035 19.045 14.8074 19.0552C14.8113 19.0653 14.8125 19.0677 14.8145 19.0743C14.8164 19.081 14.8207 19.0935 14.8235 19.1032C14.8262 19.113 14.8274 19.1165 14.8289 19.1235C14.8305 19.1306 14.8332 19.1438 14.8352 19.154C14.8371 19.1642 14.8375 19.1669 14.8383 19.1731C14.8391 19.1794 14.8406 19.195 14.8418 19.206C14.843 19.2169 14.8418 19.2177 14.8418 19.2235V19.2747C14.8418 19.2806 14.8418 19.2966 14.8391 19.3075C14.8363 19.3185 14.8391 19.32 14.8367 19.3267C14.8344 19.3333 14.8332 19.3462 14.8313 19.3563C14.8293 19.3665 14.8281 19.3716 14.8262 19.3794C14.8242 19.3872 14.8219 19.3958 14.8192 19.4036C14.8164 19.4114 14.8133 19.4224 14.8098 19.4317L14.8024 19.4505C14.7979 19.4614 14.7931 19.4721 14.7879 19.4825L14.7844 19.4903C14.569 19.9318 14.3928 20.3914 14.2578 20.8638C14.0281 21.6774 13.9988 22.3302 14.1699 22.7677C14.2547 22.7509 14.3625 22.7235 14.4508 22.7013C14.8242 22.6067 15.3356 22.4774 15.9051 22.5364C16.4199 22.5895 16.8617 22.7427 17.2164 22.8661C17.3278 22.9052 17.4649 22.9524 17.5703 22.9833C17.6875 22.5302 17.6524 21.9493 17.4735 21.4208C17.2781 20.8403 16.936 20.4118 16.5625 20.2743C16.497 20.2501 16.4368 20.2133 16.3855 20.1658C16.3342 20.1184 16.2927 20.0613 16.2635 19.9979C16.2342 19.9344 16.2177 19.8658 16.215 19.796C16.2123 19.7262 16.2233 19.6565 16.2475 19.5909C16.2717 19.5254 16.3085 19.4652 16.356 19.4139C16.4034 19.3626 16.4605 19.3211 16.5239 19.2919C16.5874 19.2626 16.656 19.2461 16.7258 19.2434C16.7956 19.2407 16.8653 19.2517 16.9309 19.2759C17.6121 19.527 18.1774 20.1841 18.4813 21.0786C18.587 21.3908 18.6555 21.7144 18.6852 22.0427C19.4629 22.4981 20.2246 22.8825 20.9039 23.2251C22.6637 24.1126 24.0539 24.8138 24.6899 26.1329C25.0324 26.8435 25.0805 27.4044 24.8363 27.8474C24.4281 28.5895 23.391 28.7103 22.0742 28.863C21.2063 28.9638 20.2074 29.0802 19.2227 29.3833C20.8949 29.7349 22.1098 30.6048 22.9067 31.3872C23.4448 31.9177 23.913 32.5149 24.2996 33.1642C25.4879 32.0466 26.4481 30.788 27.1629 29.4142C27.9125 27.9621 28.397 26.3879 28.5938 24.7657C28.5994 24.694 28.6195 24.6242 28.6529 24.5604C28.6863 24.4967 28.7322 24.4404 28.788 24.3949C28.8437 24.3495 28.9081 24.3158 28.9773 24.2959C29.0464 24.2761 29.1189 24.2704 29.1903 24.2794C29.2616 24.2883 29.3305 24.3116 29.3926 24.3479C29.4547 24.3842 29.5088 24.4327 29.5516 24.4905C29.5945 24.5483 29.6251 24.6142 29.6418 24.6842C29.6584 24.7542 29.6607 24.8269 29.6485 24.8978C29.4363 26.6462 28.9138 28.3427 28.1055 29.9075C27.2324 31.5872 26.0176 33.1056 24.4945 34.42C24.4312 34.4747 24.3559 34.5137 24.2747 34.5338C24.1935 34.5539 24.1087 34.5546 24.0272 34.5358C23.9457 34.517 23.8698 34.4792 23.8056 34.4256C23.7414 34.3719 23.6908 34.3039 23.6578 34.227C23.6531 34.2165 23.1957 33.1653 22.1586 32.147C20.7801 30.7935 19.0977 30.1739 17.1586 30.3048C17.0414 30.3129 16.9248 30.282 16.827 30.2168C16.7292 30.1517 16.6557 30.056 16.618 29.9447C16.5803 29.8334 16.5805 29.7127 16.6186 29.6016C16.6567 29.4904 16.7305 29.395 16.8285 29.3302C18.5289 28.2032 20.5078 27.9735 21.9531 27.8056C22.759 27.7118 23.7617 27.5954 23.9063 27.3337C23.9535 27.2477 23.9328 27.0083 23.7332 26.5942C23.2543 25.6005 22.0067 24.9712 20.427 24.1747C19.866 23.8919 19.2496 23.581 18.6086 23.2227C18.5851 23.3189 18.5564 23.4137 18.5227 23.5067C18.3922 23.8645 18.0903 24.0728 17.7086 24.0728H17.6461C17.4063 24.0587 17.1578 23.9724 16.8695 23.8727C16.5508 23.7622 16.1899 23.6384 15.7977 23.5966C15.4156 23.5575 15.043 23.6513 14.7141 23.7345C14.4879 23.7915 14.2926 23.8411 14.1008 23.8485C13.632 23.8665 13.4125 23.6087 13.3231 23.4532C12.9207 22.7548 12.8934 21.7806 13.2414 20.5575C13.361 20.143 13.5086 19.7372 13.6832 19.3427C12.9223 18.4775 12.2423 17.5443 11.652 16.5548C11.5488 16.388 11.4559 16.2208 11.3672 16.052ZM16.8516 11.9798C18.3524 10.4466 19.4348 8.73173 19.6293 7.58642C19.1574 7.37994 18.6738 7.2015 18.1809 7.05205C15.9805 6.38447 13.6551 6.30556 11.2637 6.81767C11.1001 7.78559 11.0196 8.76572 11.0231 9.74736C11.0274 11.1981 11.2266 13.2106 12.0742 15.0786C13.5738 14.6829 15.2899 13.5751 16.8516 11.9798Z" fill="#1E1E1E"/>
<path d="M25.9843 21.1554C25.9341 21.204 25.8748 21.2422 25.8098 21.2679C25.7448 21.2936 25.6754 21.3062 25.6056 21.305C25.5357 21.3039 25.4668 21.2889 25.4027 21.2611C25.3386 21.2333 25.2806 21.1932 25.232 21.1429L19.1179 14.8258C19.0693 14.7755 19.0311 14.7162 19.0054 14.6512C18.9797 14.5862 18.9671 14.5168 18.9682 14.4469C18.9694 14.3771 18.9843 14.3081 19.0121 14.244C19.0399 14.1798 19.08 14.1218 19.1302 14.0732C19.1805 14.0246 19.2398 13.9864 19.3048 13.9607C19.3697 13.935 19.4392 13.9224 19.509 13.9235C19.5789 13.9247 19.6479 13.9395 19.712 13.9673C19.7761 13.9951 19.8342 14.0353 19.8828 14.0855L25.9968 20.4031C26.0454 20.4533 26.0836 20.5126 26.1093 20.5776C26.135 20.6426 26.1476 20.712 26.1464 20.7819C26.1453 20.8517 26.1303 20.9207 26.1025 20.9848C26.0747 21.0489 26.0346 21.1069 25.9843 21.1554ZM21.1527 20.1797C21.1025 20.2282 21.0432 20.2665 20.9782 20.2921C20.9132 20.3178 20.8438 20.3304 20.7739 20.3292C20.7041 20.3281 20.6351 20.3132 20.571 20.2854C20.5069 20.2575 20.4489 20.2174 20.4003 20.1672L16.914 16.5648C16.8159 16.4634 16.762 16.3271 16.7643 16.186C16.7666 16.0449 16.8249 15.9104 16.9263 15.8123C17.0278 15.7141 17.164 15.6603 17.3051 15.6626C17.4463 15.6649 17.5807 15.7232 17.6789 15.8246L21.1652 19.4269C21.2138 19.4771 21.2521 19.5365 21.2778 19.6015C21.3035 19.6665 21.3161 19.736 21.315 19.8059C21.3138 19.8758 21.2989 19.9448 21.271 20.0089C21.2432 20.0731 21.203 20.1311 21.1527 20.1797ZM24.5531 16.4765L20.8882 12.6875C20.8396 12.6372 20.8014 12.5779 20.7757 12.513C20.75 12.448 20.7374 12.3785 20.7385 12.3087C20.7397 12.2388 20.7546 12.1698 20.7824 12.1057C20.8102 12.0416 20.8503 11.9835 20.9005 11.9349C20.9508 11.8863 21.0101 11.8481 21.0751 11.8224C21.1401 11.7967 21.2095 11.7841 21.2794 11.7852C21.3492 11.7864 21.4182 11.8013 21.4823 11.8291C21.5465 11.8569 21.6045 11.897 21.6531 11.9472L25.3179 15.7363C25.3665 15.7865 25.4048 15.8458 25.4305 15.9108C25.4561 15.9758 25.4688 16.0452 25.4676 16.1151C25.4665 16.185 25.4516 16.254 25.4238 16.3181C25.396 16.3822 25.3558 16.4402 25.3056 16.4888C25.2554 16.5374 25.1961 16.5757 25.1311 16.6014C25.0661 16.6271 24.9967 16.6397 24.9268 16.6385C24.8569 16.6374 24.788 16.6225 24.7238 16.5947C24.6597 16.5669 24.6017 16.5268 24.5531 16.4765Z" fill="#1E1E1E"/>
</svg>
