<svg xmlns="http://www.w3.org/2000/svg" version="1.1" xmlns:xlink="http://www.w3.org/1999/xlink" width="512" height="512" x="0" y="0" viewBox="0 0 464 464" style="enable-background:new 0 0 512 512" xml:space="preserve" class=""><g><path d="M459.733 148.396a14.294 14.294 0 0 0-10.24-4.267H213.547c-5.891 0-10.667-4.776-10.667-10.667v-75.52a14.294 14.294 0 0 0-8.96-13.227 14.1 14.1 0 0 0-4.48-1.067 14.294 14.294 0 0 0-10.24 4.267L4.267 221.783A14.078 14.078 0 0 0 0 231.81a14.503 14.503 0 0 0 4.267 10.24l174.08 174.08a14.506 14.506 0 0 0 15.573 3.2 14.292 14.292 0 0 0 8.96-13.227v-75.52c0-5.891 4.776-10.667 10.667-10.667h236.16c7.894 0 14.293-6.399 14.293-14.293V158.636a14.507 14.507 0 0 0-4.267-10.24z" fill="#1e1e1e" opacity="1" data-original="#000000" class=""></path></g></svg>