<svg xmlns="http://www.w3.org/2000/svg" version="1.1" xmlns:xlink="http://www.w3.org/1999/xlink" width="512" height="512" x="0" y="0" viewBox="0 0 60 60" style="enable-background:new 0 0 512 512" xml:space="preserve" class=""><g><path fill="#ffffff" d="M30.73 24.347a.5.5 0 0 1-.327-.878l.918-.8-1.609.929a.5.5 0 0 1-.551-.832l5.232-3.941-5.562 3.211a.5.5 0 0 1-.526-.85l2.933-1.943-2.563 1.48a.5.5 0 0 1-.524-.852l5.2-3.4-4.111 2.384a.5.5 0 0 1-.518-.855l2.587-1.649a.5.5 0 0 1-.205-.905l5.595-3.86-.8.461a.5.5 0 0 1-.561-.823L40.76 6.9a.43.43 0 0 1-.061-.084.5.5 0 0 1 .183-.682l3.069-1.774a.5.5 0 0 1 .562.824l-3.34 2.665 5.8-3.348a.5.5 0 0 1 .534.844L41.9 9.211l6.457-3.728a.5.5 0 0 1 .519.855l-.426.271.249-.143a.5.5 0 0 1 .524.851l-5.214 3.4.784-.452a.5.5 0 0 1 .526.849l-4.05 2.686a.5.5 0 0 1 .269.9l-5.867 4.419a.5.5 0 0 1 .274.875l-3.654 3.163a.5.5 0 0 1-.245.507l-1.066.615a.49.49 0 0 1-.25.068z" opacity="1" data-original="#297dc1" class=""></path><path fill="#ffffff" d="M5.894 55.375a.5.5 0 0 1-.308-.9l2.754-2.138L5.288 54.1a.5.5 0 0 1-.552-.831l2.7-2.048-1.66.958a.5.5 0 0 1-.545-.837l1.289-.94a.5.5 0 0 1-.279-.834l3.083-3.294a.5.5 0 0 1 .193-.666l1-.581a.5.5 0 0 1 .616.775l-1.859 1.99 3.983-2.3a.5.5 0 0 1 .545.837l-.4.29.452-.261a.5.5 0 0 1 .552.831l-2.7 2.05 2.408-1.389a.5.5 0 0 1 .558.827l-2.756 2.143 1.836-1.059a.5.5 0 1 1 .5.865l-8.108 4.682a.494.494 0 0 1-.25.067z" opacity="1" data-original="#c7e0ef" class=""></path><path fill="#ffffff" d="M35.192 59.47a.5.5 0 0 1-.317-.887l.08-.065-1.533.884a.5.5 0 0 1-.653-.727l1.481-2.028-4.773 2.753a.5.5 0 0 1-.642-.743l1.494-1.884-4.552 2.627a.5.5 0 0 1-.637-.748l1.492-1.835-4.476 2.583a.5.5 0 0 1-.566-.819l.038-.031-1.475.85a.5.5 0 0 1-.591-.8l1.007-.937-3.007 1.737a.5.5 0 0 1-.647-.736l1.493-1.95-4.655 2.686a.5.5 0 0 1-.588-.8l.943-.867L11.22 59.4a.5.5 0 0 1-.641-.745l1.494-1.865-4.522 2.61a.5.5 0 0 1-.583-.8l.8-.712L5.135 59.4a.5.5 0 0 1-.6-.787l1.248-1.244-3.267 1.886a.5.5 0 0 1-.592-.8l.877-.821-1.28.738a.5.5 0 0 1-.681-.685l.749-1.281-.024.013a.5.5 0 0 1-.5-.865l1.657-.954a.5.5 0 0 1 .681.684l-.748 1.281L6.063 54.6a.5.5 0 0 1 .592.8l-.879.823L8.585 54.6a.5.5 0 0 1 .6.787L7.94 56.629l3.52-2.029a.5.5 0 0 1 .583.8l-.8.712 2.63-1.517a.5.5 0 0 1 .641.745l-1.495 1.864 4.525-2.604a.5.5 0 0 1 .588.8l-.944.867 2.889-1.667a.5.5 0 0 1 .626.1.5.5 0 0 1 .022.634l-1.494 1.951 4.657-2.685a.5.5 0 0 1 .591.8l-1.006.936 3.005-1.736a.5.5 0 0 1 .566.819L27 55.45l1.477-.852a.5.5 0 0 1 .638.748l-1.487 1.834L32.1 54.6a.5.5 0 0 1 .641.743l-1.494 1.884L35.8 54.6a.5.5 0 0 1 .653.727l-1.481 2.029 4.775-2.756a.5.5 0 0 1 .567.819l-.08.065 1.534-.884a.5.5 0 0 1 .635.751l-1.488 1.8 4.426-2.551a.5.5 0 0 1 .612.777L44.6 56.8l3.815-2.2a.5.5 0 0 1 .626.1.5.5 0 0 1 .022.634l-1.493 1.954 4.663-2.69a.5.5 0 0 1 .655.725L51.4 57.364l4.8-2.764a.5.5 0 0 1 .626.1.5.5 0 0 1 .022.634l-1.492 1.952 3.342-1.93a.5.5 0 0 1 .67.7l-.93 1.438.285-.164a.5.5 0 0 1 .5.865l-2.082 1.2a.5.5 0 0 1-.67-.7l.93-1.438-3.714 2.143a.5.5 0 0 1-.648-.736l1.492-1.952-4.658 2.688a.5.5 0 0 1-.655-.725l1.482-2.039-4.8 2.764a.5.5 0 0 1-.647-.736l1.492-1.954-4.659 2.69a.5.5 0 0 1-.612-.777l1.358-1.423-3.815 2.2a.5.5 0 0 1-.636-.751l1.489-1.8-4.428 2.551a.493.493 0 0 1-.25.07z" opacity="1" data-original="#3d5763" class=""></path><path fill="#ffffff" d="M53.562 10.025a.5.5 0 0 1-.323-.881l1.063-.9-1.4.81a.5.5 0 0 1-.562-.824l1.016-.812-1.331.768a.5.5 0 0 1-.574-.814L53.4 5.71l-2.45 1.414a.5.5 0 0 1-.562-.822l1.189-.955-1.088.628a.5.5 0 0 1-.574-.814l3.309-2.813a.5.5 0 0 1 .192-.665L55.292.6a.5.5 0 0 1 .574.813l-1.111.945 1.989-1.148a.5.5 0 0 1 .563.822l-1.19.955 1.525-.88a.5.5 0 0 1 .574.814L56.267 4.58l2.3-1.327a.5.5 0 0 1 .563.823l-1.02.816.521-.3a.5.5 0 0 1 .573.814l-2.575 2.179a.49.49 0 0 1 .093.117.5.5 0 0 1-.183.683l-2.727 1.573a.491.491 0 0 1-.25.067z" opacity="1" data-original="#c7e0ef" class=""></path><path fill="#ffffff" d="M14.364 49.8a.5.5 0 0 1-.3-.9l2.636-1.938-3.083 1.779a.5.5 0 0 1-.536-.843l6.947-4.851-7.675 4.431a.5.5 0 0 1-.525-.85l6.889-4.554-7.46 4.307a.5.5 0 0 1-.522-.853l4.377-2.828-4.7 2.715a.5.5 0 0 1-.519-.854l2.858-1.83-1.357.784a.5.5 0 0 1-.52-.854L13.473 41a.5.5 0 0 1-.235-.905l7-4.965-2.3 1.33a.5.5 0 0 1-.555-.828l4.534-3.5a.5.5 0 0 1-.462-.855l2.945-2.659a.5.5 0 0 1 .2-.646l1.471-.85a.5.5 0 0 1 .585.8l-1.026.927 2.134-1.232a.5.5 0 0 1 .555.828l-4.429 3.422 5.155-2.967a.5.5 0 0 1 .539.84l-7 4.965 7.785-4.494a.5.5 0 0 1 .52.854l-.8.507 1.04-.6a.5.5 0 0 1 .519.853l-2.857 1.83 3.187-1.839a.5.5 0 0 1 .521.852l-4.374 2.822 4.415-2.549a.5.5 0 0 1 .525.85l-6.886 4.553 3.415-1.972a.5.5 0 0 1 .536.843l-6.957 4.858.884-.51a.5.5 0 0 1 .546.836l-4.494 3.3a.486.486 0 0 1 .179.181.5.5 0 0 1-.183.682l-5.491 3.17a.493.493 0 0 1-.25.068zM36.225 30.8a.5.5 0 0 1-.328-.878l.044-.038-1.068.616a.5.5 0 0 1-.544-.837l.807-.585-1.41.814a.5.5 0 0 1-.541-.84l5.415-3.87-6.083 3.511a.5.5 0 0 1-.517-.849l4.687-3.111-5.15 2.973a.5.5 0 0 1-.525-.85l8.352-5.513-9 5.194a.5.5 0 0 1-.523-.851l10.188-6.66-10.087 5.822a.5.5 0 0 1-.515-.857l1.562-.978-.708.408a.5.5 0 0 1-.526-.85l9.783-6.471-4.778 2.755a.5.5 0 0 1-.537-.841l8.228-5.762-2.18 1.258a.5.5 0 0 1-.539-.842l4.246-2.989a.479.479 0 0 1-.181-.163.5.5 0 0 1 .109-.674l3.966-3.065a.5.5 0 0 1 .235-.555L50.05 4.1a.5.5 0 0 1 .555.828l-.206.159.558-.321a.5.5 0 0 1 .538.841l-2.11 1.486 2.472-1.427a.5.5 0 0 1 .538.842l-8.221 5.757 9.055-5.228a.5.5 0 0 1 .526.85l-9.793 6.48 10.522-6.073A.5.5 0 0 1 55 9.15l-1.551.972 1.731-1a.5.5 0 0 1 .523.852l-10.2 6.664 7.806-4.506a.5.5 0 0 1 .526.849L45.487 18.5l4.574-2.64a.5.5 0 0 1 .526.85l-4.671 3.1 1.117-.645a.5.5 0 0 1 .541.84l-5.425 3.877.811-.468a.5.5 0 0 1 .544.837L40.5 26.428a.494.494 0 0 1 .126.124.5.5 0 0 1-.08.668l-2.717 2.356a.5.5 0 0 1-.242.519l-1.108.64a.493.493 0 0 1-.254.065z" opacity="1" data-original="#3d93e8" class=""></path><path fill="#ffffff" d="M32.072 34.831A.5.5 0 0 1 31.7 34l1.936-2.176-2.7 1.56a.5.5 0 0 1-.6-.793l1.356-1.3-1.813 1.046a.5.5 0 0 1-.628-.76l1.995-2.306L28.43 30.9a.5.5 0 0 1-.6-.793l1.363-1.31-1.823 1.052a.5.5 0 0 1-.623-.766l1.927-2.155-2.685 1.549a.5.5 0 0 1-.619-.77l3.148-3.444a.5.5 0 0 1 .214-.618l.809-.467a.5.5 0 0 1 .619.769l-1.87 2.047 2.587-1.494a.5.5 0 0 1 .623.766l-1.927 2.155 2.685-1.549a.5.5 0 0 1 .6.793l-1.362 1.309 1.823-1.052a.5.5 0 0 1 .628.76l-1.995 2.306 2.817-1.626a.5.5 0 0 1 .6.793l-1.356 1.3 1.813-1.046a.5.5 0 0 1 .623.765l-2.932 3.286.016.027a.5.5 0 0 1-.182.683l-1.029.594a.489.489 0 0 1-.25.067z" opacity="1" data-original="#c7e0ef" class=""></path><path fill="#121212" d="M56.863 54.437c-15.906.027-31.8-.029-47.712-.062a27.736 27.736 0 0 0 5.44-4.149 2.782 2.782 0 0 0 2.642-.984c5.271-4.874 10.59-9.792 15.758-14.723 8.028-7.622 16-15.379 22.98-23.989a1.411 1.411 0 0 0-.071-1.582c1.382-1.767 5.393-3.8 3.084-6.282-2.473-3.78-5.939-1.093-8.033 1.529A2.527 2.527 0 0 0 48.5 4.9c-5.207-2.426-9.2 2.767-12.656 5.883-2.757 3.587-10.987 7.527-7.035 12.7-6.292 6.529-12.459 13.187-18.625 19.852-.6.554-1.26 1.429-.569 2.191-2.045 2.509-5.716 5.351-5.185 8.9-1.857-.194-4.23.514-4.154 2.768 1.2 4.781 12.619 1.419 16.743 2.37h33.022c2.97-.489 7.613 1.425 9.625-1.219.645-2.11-.197-4.527-2.803-3.908zM32.407 33.729l-6.156-6.156c1.076-1.134 2.163-2.258 3.249-3.383l6.309 6.31c-1.125 1.085-2.27 2.151-3.402 3.229zM54.344 1.984a6.044 6.044 0 0 1 .768-.7c4.4 1.869 3.576 4.426.263 7.013-1.364-1.139-2.319-2.526-3.675-3.668q1.321-1.323 2.644-2.645zm-4.066 3.2c1.208 1.756 4.436 3.151 4.348 5.325a218.191 218.191 0 0 1-17.878 19.08l-6.339-6.339C36.729 17.315 43.2 9.274 50.278 5.188zm-20.036 12.4C35.1 14.187 41.136 2.721 47.61 5.646a242.423 242.423 0 0 0-17.834 16.84 3.948 3.948 0 0 1 .466-4.899zM12.917 41.852q6.168-6.664 12.39-13.277l6.1 6.1q-7.5 7.122-15.1 14.128c-.82 1.259-1.531-.008-2.2-.658-2.282-2.285-4.877-3.588-1.19-6.293zM6.124 54.39c-1.4-3.005 2.443-6 4.1-8.224 1.216 1.2 2.37 2.485 3.635 3.629-2.259 1.872-4.515 4.895-7.709 4.613-.008-.008-.019-.008-.026-.018zm51.859 4.047c-18.246 0-36.587.009-54.844 0-11.3-5.765 46.305-1.76 49.432-2.875 2.468.29 7.294-1.346 5.412 2.875z" opacity="1" data-original="#262626" class=""></path></g></svg>