<svg xmlns="http://www.w3.org/2000/svg" version="1.1" xmlns:xlink="http://www.w3.org/1999/xlink" width="512" height="512" x="0" y="0" viewBox="0 0 60 60" style="enable-background:new 0 0 512 512" xml:space="preserve" class=""><g><g fill="#304e7a"><path d="M22.034 21.722a.5.5 0 0 1-.355-.852l2.293-2.318-1.662.959a.5.5 0 0 1-.607-.784l2.284-2.315-1.677.968a.5.5 0 0 1-.593-.8l1.773-1.67-1.18.681a.5.5 0 0 1-.605-.785l2.243-2.26-1.638.945a.5.5 0 0 1-.6-.793l1.94-1.871-1.34.773a.5.5 0 0 1-.577-.812l.838-.721-.261.151a.5.5 0 0 1-.6-.786l2.2-2.207-1.6.923a.5.5 0 0 1-.6-.788l1.966-1.946-1.9 1.1a.5.5 0 0 1-.576-.813l.574-.49-2.01 1.16a.5.5 0 0 1-.586-.8l1.811-1.646-4.247 2.448a.5.5 0 0 1-.6-.795l2.09-1.978-4.81 2.777a.5.5 0 0 1-.563-.823l.949-.759-2.741 1.578a.5.5 0 0 1-.6-.789l2.162-2.124-5.046 2.913a.5.5 0 1 1-.5-.865L15.536.627a.5.5 0 0 1 .6.789L13.975 3.54 19.021.627a.5.5 0 0 1 .562.823l-.948.759 2.74-1.582a.5.5 0 0 1 .595.8L19.886 3.4 24.519.729a.5.5 0 0 1 .585.8l-1.812 1.649 2.67-1.541a.5.5 0 0 1 .575.812l-.574.49.563-.324a.5.5 0 0 1 .6.788l-1.965 1.949 1.529-.883a.5.5 0 0 1 .6.786l-2.2 2.207 1.6-.924a.5.5 0 0 1 .577.812l-.838.72.261-.15a.5.5 0 0 1 .6.793l-1.938 1.869 1.341-.774a.5.5 0 0 1 .605.785l-2.248 2.261 1.64-.946a.5.5 0 0 1 .593.8l-1.773 1.67 1.18-.681a.5.5 0 0 1 .607.784L25.013 16.8l1.677-.968a.5.5 0 0 1 .606.784L25 18.931l1.687-.974a.5.5 0 1 1 .5.865l-4.906 2.832a.49.49 0 0 1-.247.068z" fill="#ffffff" opacity="1" data-original="#304e7a" class=""></path><path d="M18.641 27.44a.5.5 0 0 1-.294-.9l.623-.453-2.236 1.29a.5.5 0 0 1-.613-.776l2.273-2.406-5.51 3.182a.5.5 0 0 1-.568-.819l1.222-1-3.153 1.82a.5.5 0 0 1-.617-.771l2.274-2.465-5.606 3.231a.5.5 0 0 1-.589-.8l1.977-1.819-4.356 2.514a.5.5 0 0 1-.558-.828l.432-.336-.988.571a.5.5 0 0 1-.576-.813l.8-.687-.963.555a.5.5 0 0 1-.578-.81l.681-.59-.4.231a.5.5 0 0 1-.589-.8l1.549-1.425-.968.559a.5.5 0 0 1-.6-.794l1.859-1.775-1.264.73a.5.5 0 0 1-.605-.785l2.313-2.355-1.703.984a.5.5 0 0 1-.574-.813l.665-.566-.091.053A.5.5 0 0 1 .7 16.8l2.468-2.582-1.858 1.067a.5.5 0 0 1-.594-.8l1.8-1.7-1.2.693a.5.5 0 0 1-.592-.8l1.73-1.626-1.138.657a.5.5 0 0 1-.6-.795L2.661 9.07l-1.351.781a.5.5 0 0 1-.556-.83l4.9-3.772L1.31 7.755a.5.5 0 0 1-.561-.825l2.533-2L1.31 6.066a.5.5 0 0 1-.563-.823l.581-.466-.018.011a.5.5 0 0 1-.641-.744L1.7 2.755a.5.5 0 0 1-.5-.246.5.5 0 0 1 .183-.683L3.421.649a.5.5 0 0 1 .641.745L3.1 2.6 6.518.627a.5.5 0 0 1 .562.823l-.58.466L8.731.627a.5.5 0 0 1 .561.825l-2.534 2 4.9-2.828a.5.5 0 0 1 .556.829L6.223 6.071a.5.5 0 0 1 .169.83L4.445 8.754l1.245-.719a.5.5 0 0 1 .592.8l-1.728 1.621L5.69 9.8a.5.5 0 0 1 .594.8l-1.8 1.7 1.2-.694a.5.5 0 0 1 .612.778l-2.462 2.579 1.856-1.071a.5.5 0 0 1 .574.813l-.665.566.091-.053A.5.5 0 0 1 6.3 16l-2.316 2.356 1.706-.984a.5.5 0 0 1 .595.794L4.426 19.94l1.264-.729a.5.5 0 0 1 .589.8l-1.547 1.425 1-.58a.5.5 0 0 1 .578.811l-.681.591 1.1-.633a.5.5 0 0 1 .575.812l-.8.686 2.592-1.5a.5.5 0 0 1 .557.827l-.435.339 2.02-1.166a.5.5 0 0 1 .589.8l-1.975 1.823 4.537-2.619a.5.5 0 0 1 .617.771l-2.275 2.465 5.607-3.236a.5.5 0 0 1 .567.819l-1.22 1 3.173-1.832a.5.5 0 0 1 .614.777L19.2 24.8l7.491-4.325a.5.5 0 0 1 .544.837l-.624.454.08-.046a.5.5 0 0 1 .588.8l-1.871 1.717 1.283-.74a.5.5 0 0 1 .627.762l-.867.993a.5.5 0 0 1 .166.926l-2.037 1.173a.5.5 0 0 1-.627-.762l.634-.727-2.616 1.511a.5.5 0 0 1-.588-.8l1.871-1.718-4.363 2.519a.494.494 0 0 1-.25.066z" fill="#ffffff" opacity="1" data-original="#304e7a" class=""></path><path d="M12.023 17.47a.5.5 0 0 1-.316-.887l.2-.167-.572.33a.5.5 0 0 1-.572-.814l1.412-1.191-.9.518a.5.5 0 0 1-.57-.817l.337-.28a.492.492 0 0 1-.354-.131.5.5 0 0 1-.117-.578l.58-1.258a.508.508 0 0 1-.506-.245.5.5 0 0 1 .183-.682l1.161-.67a.5.5 0 0 1 .7.641l-.554 1.2 3.2-1.844a.5.5 0 0 1 .57.816l-.067.056.723-.417a.5.5 0 0 1 .573.814l-1.412 1.192.994-.575a.5.5 0 0 1 .566.82l-.384.315a.507.507 0 0 1 .452.175.5.5 0 0 1 0 .644l-.572.674a.5.5 0 0 1 .44.9L14.8 17.4a.5.5 0 0 1-.632-.756l.562-.664-2.457 1.42a.493.493 0 0 1-.25.07zM54.06 21.142a.5.5 0 0 1-.325-.881l.692-.588-.117.067a.5.5 0 0 1-.608-.782l2.323-2.371-1.715.99a.5.5 0 0 1-.61-.777l2.445-2.547-1.835 1.057a.5.5 0 0 1-.6-.789l2.14-2.121-1.54.889a.5.5 0 0 1-.583-.8l1.287-1.153-.7.406a.5.5 0 0 1-.573-.815l.558-.469a.5.5 0 0 1-.595-.789l2.41-2.5L54.31 8.2a.5.5 0 0 1-.59-.8l1.551-1.441L54 6.7a.5.5 0 0 1-.579-.808l.766-.672-2 1.157a.5.5 0 0 1-.621-.769l2.258-2.479L48.2 6.373a.5.5 0 0 1-.576-.811l1.644-1.418L45.4 6.373a.5.5 0 0 1-.554-.829l.358-.275-1.914 1.1a.5.5 0 0 1-.608-.781l2.234-2.3-5.335 3.08a.5.5 0 1 1-.5-.865L47.536.627a.5.5 0 0 1 .609.781l-2.235 2.3L51.245.627a.5.5 0 0 1 .555.829l-.359.275 1.914-1.1a.5.5 0 0 1 .577.811l-1.646 1.415L56.108.651a.5.5 0 0 1 .621.77L54.472 3.9 58.1 1.8a.5.5 0 0 1 .579.808l-.77.674.7-.4a.5.5 0 0 1 .59.8l-1.555 1.444 1.046-.605a.5.5 0 0 1 .61.781L56.89 7.8l1.8-1.039a.5.5 0 0 1 .573.815l-.558.469a.5.5 0 0 1 .568.813l-1.287 1.152.7-.406a.5.5 0 0 1 .648.128.5.5 0 0 1-.045.66l-2.139 2.124 1.54-.889a.5.5 0 0 1 .611.779l-2.445 2.547L58.69 13.9a.5.5 0 0 1 .608.782l-2.323 2.371 1.715-.99a.5.5 0 0 1 .575.813l-.692.588.117-.067a.5.5 0 1 1 .5.865l-4.88 2.817a.5.5 0 0 1-.25.063z" fill="#ffffff" opacity="1" data-original="#304e7a" class=""></path><path d="M47.354 27.44a.5.5 0 0 1-.283-.913l.648-.441-2.231 1.287a.5.5 0 0 1-.563-.822l1-.8-2.817 1.626a.5.5 0 0 1-.562-.823l.952-.762-2.746 1.585a.5.5 0 0 1-.568-.818l1.294-1.069-3.269 1.887a.5.5 0 0 1-.574-.813l1.549-1.318L35.62 27.3a.5.5 0 0 1-.61-.779l2.175-2.261-3.306 1.908a.5.5 0 0 1-.6-.793l1.466-1.409-1.415.816a.5.5 0 0 1-.59-.8l1.608-1.492-1.041.6a.5.5 0 0 1-.567-.82l.341-.27a.492.492 0 0 1-.418-.2.5.5 0 0 1 .042-.657l2.216-2.223-1.611.93a.5.5 0 0 1-.607-.784l2.3-2.34-1.7.978a.5.5 0 0 1-.609-.781l2.366-2.433-1.75 1.016a.5.5 0 0 1-.6-.789l2.066-2.028-1.465.846a.5.5 0 0 1-.581-.806L33.9 11.7l-.585.337a.5.5 0 0 1-.6-.791l2.021-1.966-1.426.82a.5.5 0 0 1-.537-.843l2.868-2.006L33.31 8.6a.5.5 0 0 1-.541-.839l1.665-1.194-1.124.643a.5.5 0 0 1-.6-.793l2.99-2.879-2.39 1.38a.5.5 0 0 1-.647-.737l1.106-1.441a.5.5 0 0 1-.385-.914L35.421.649a.5.5 0 0 1 .646.738L34.986 2.8 38.742.627a.5.5 0 0 1 .6.793L36.351 4.3 42.713.627a.5.5 0 0 1 .541.839L41.589 2.66 45.111.627a.5.5 0 0 1 .536.843l-7.273 5.088a.5.5 0 0 1-.066.637l-2.022 1.966 1.4-.81a.5.5 0 0 1 .581.806L37.1 10.189l.585-.336a.5.5 0 0 1 .6.79l-2.066 2.026 1.465-.846a.5.5 0 0 1 .609.781l-2.366 2.433 1.757-1.015a.5.5 0 0 1 .607.784L36 17.145l1.694-.978a.5.5 0 0 1 .605.785l-2.216 2.223 1.611-.93a.5.5 0 0 1 .567.82l-.339.276a.545.545 0 0 1 .425.2.5.5 0 0 1-.063.663L36.675 21.7l1.131-.652a.5.5 0 0 1 .6.793l-1.465 1.41 2.807-1.621a.5.5 0 0 1 .61.779l-2.178 2.258 5.266-3.04a.5.5 0 0 1 .575.813l-1.548 1.317 3.689-2.13a.5.5 0 0 1 .568.818l-1.293 1.069 3.268-1.887a.5.5 0 0 1 .563.823l-.953.762 2.747-1.585a.5.5 0 0 1 .563.822l-1 .8L58.69 18.6a.5.5 0 0 1 .533.845l-.652.445.119-.069a.5.5 0 0 1 .548.835L57.277 22.1l1.413-.816a.5.5 0 0 1 .569.818l-1.713 1.415 1.144-.66a.5.5 0 0 1 .608.783l-1.013 1.033.234-.135a.5.5 0 0 1 .5.865l-3.4 1.966a.5.5 0 0 1-.607-.782l1.014-1.035-3.148 1.817a.5.5 0 0 1-.568-.818l1.712-1.414-3.869 2.232a.5.5 0 0 1-.547-.835l1.961-1.451-3.967 2.29a.5.5 0 0 1-.246.067z" fill="#ffffff" opacity="1" data-original="#304e7a" class=""></path><path d="M46.836 17.47a.5.5 0 0 1-.425-.764l1.089-1.752-3.86 2.229a.5.5 0 0 1-.579-.81l1.709-1.492-1.487.857a.5.5 0 0 1-.64-.744l1.757-2.209-1.121.647a.5.5 0 0 1-.676-.7l.343-.554a.5.5 0 0 1-.3-.232.5.5 0 0 1 .183-.682l1.161-.67a.5.5 0 0 1 .676.695l-.175.283 1.7-.978a.5.5 0 0 1 .641.744l-1.762 2.209 3.637-2.1a.5.5 0 0 1 .579.81l-1.71 1.493 1.145-.66a.5.5 0 0 1 .675.7l-1.086 1.751.41-.236a.5.5 0 0 1 .5.865l-2.134 1.23a.49.49 0 0 1-.25.07zM38.411 40.47a.5.5 0 0 1-.447-.723l.817-1.64-3.863 2.231a.5.5 0 0 1-.6-.787l2.511-2.491-2.549 1.469a.5.5 0 0 1-.6-.786l1.376-1.373-.773.445a.5.5 0 0 1-.694-.662l.492-.953a.5.5 0 0 1-.245-.932l1.161-.67a.5.5 0 0 1 .694.662l-.432.838 2.6-1.5a.5.5 0 0 1 .6.786l-1.375 1.373 2.582-1.491a.5.5 0 0 1 .6.787l-2.51 2.49 1.961-1.132a.5.5 0 0 1 .7.655l-.817 1.641.112-.065a.5.5 0 1 1 .5.867l-1.551.894a.5.5 0 0 1-.25.067zM55.03 40.47a.5.5 0 0 1-.375-.831l.915-1.039-2.842 1.64a.5.5 0 0 1-.571-.816l1.014-.845-.891.514a.5.5 0 0 1-.613-.777l2.023-2.134-1.41.818a.5.5 0 0 1-.7-.648l.552-1.153a.527.527 0 0 1-.481-.248.5.5 0 0 1 .183-.682l1.161-.67a.5.5 0 0 1 .7.648l-.517 1.08 3-1.728a.5.5 0 0 1 .613.776l-2.024 2.135 2.953-1.71a.5.5 0 0 1 .57.816l-1.013.844.443-.255a.5.5 0 0 1 .625.764l-.915 1.036.29-.167a.5.5 0 0 1 .5.865l-2.94 1.7a.49.49 0 0 1-.25.067zM37.709 58.47a.5.5 0 0 1-.413-.782l1.03-1.513-3.592 2.073a.5.5 0 0 1-.577-.81l1.536-1.333-1.413.816a.5.5 0 0 1-.622-.767l1.9-2.126-1.282.741a.5.5 0 0 1-.692-.666l.475-.9a.5.5 0 0 1-.23-.932l1.161-.67a.5.5 0 0 1 .6.072.5.5 0 0 1 .1.594l-.409.774 2.5-1.44a.5.5 0 0 1 .622.766l-1.9 2.125 3.227-1.863a.5.5 0 0 1 .577.811l-1.547 1.33.96-.554a.5.5 0 0 1 .663.714l-1.029 1.512.366-.211a.5.5 0 0 1 .5.866l-2.261 1.3a.49.49 0 0 1-.25.073zM46.026 49.47a.5.5 0 0 1-.394-.808l1.362-1.745-3.548 2.049a.5.5 0 0 1-.565-.82l.9-.731-.5.287a.5.5 0 0 1-.6-.789l1.519-1.494-.916.528a.5.5 0 0 1-.7-.652l.535-1.1a.5.5 0 0 1-.283-.931l1.161-.67a.493.493 0 0 1 .591.067.5.5 0 0 1 .108.585l-.496 1.017 2.883-1.663a.5.5 0 0 1 .6.789l-1.518 1.495 2.535-1.466a.5.5 0 0 1 .566.82l-.9.729.348-.2a.5.5 0 0 1 .644.74L48 47.252l.719-.414a.5.5 0 0 1 .5.865l-2.944 1.7a.49.49 0 0 1-.249.067zM54.544 58.47a.5.5 0 0 1-.364-.842l1.112-1.187-2.792 1.61a.5.5 0 0 1-.573-.815l1.451-1.229-1.1.636a.5.5 0 0 1-.583-.806l1.051-.937-.468.27a.5.5 0 0 1-.706-.637l.6-1.342a.5.5 0 0 1-.343-.923l1.161-.67a.5.5 0 0 1 .706.636l-.581 1.3L56.47 51.6a.5.5 0 0 1 .583.8L56 53.338l1.692-.977a.5.5 0 0 1 .574.815l-1.454 1.23.9-.52a.5.5 0 0 1 .614.774l-1.113 1.187.5-.287a.5.5 0 0 1 .676.694l-.346.563a.509.509 0 0 1 .3.233.5.5 0 0 1-.183.682l-1.16.67a.5.5 0 0 1-.676-.694l.183-.3-1.72.992a.49.49 0 0 1-.243.07zM22.043 53.647a.5.5 0 0 1-.349-.858l2.029-1.975-1.413.816a.5.5 0 0 1-.588-.8l1.52-1.394-.932.538a.5.5 0 0 1-.611-.78l2.418-2.506-1.807 1.041a.5.5 0 0 1-.59-.8l1.594-1.473-1 .579a.5.5 0 0 1-.6-.787l2.148-2.134-1.545.893a.5.5 0 0 1-.574-.815l.616-.519-.042.023a.5.5 0 0 1-.577-.811l.864-.744-.287.165a.5.5 0 0 1-.592-.8l1.714-1.606-1.129.651a.5.5 0 0 1-.621-.769l2.2-2.416-3.489 2.007a.5.5 0 0 1-.61-.779l2.155-2.245-5.239 3.024a.5.5 0 0 1-.577-.81l1.657-1.433-3.886 2.243a.5.5 0 0 1-.589-.8l2-1.86-4.605 2.659a.5.5 0 0 1-.588-.8l1.961-1.8-4.5 2.6a.5.5 0 1 1-.5-.865l8.453-4.881a.5.5 0 0 1 .588.8l-1.961 1.8 4.5-2.6a.5.5 0 0 1 .59.8l-2 1.859 4.6-2.658a.5.5 0 0 1 .577.811l-1.659 1.433 3.72-2.147a.5.5 0 0 1 .611.779l-2.155 2.244 3.213-1.854a.5.5 0 0 1 .62.768l-2.2 2.417 2.1-1.215a.5.5 0 0 1 .592.8l-1.708 1.612 1.129-.651a.5.5 0 0 1 .577.812l-.866.746.29-.167a.5.5 0 0 1 .574.814l-.612.517.038-.022a.5.5 0 0 1 .6.787l-2.15 2.135 1.547-.892a.5.5 0 0 1 .59.8l-1.594 1.473 1-.579a.5.5 0 0 1 .611.779l-2.418 2.507 1.814-1.044a.5.5 0 0 1 .588.8l-1.52 1.394.932-.538a.5.5 0 0 1 .6.791l-2.027 1.974 1.428-.824a.5.5 0 1 1 .5.865l-4.9 2.827a.489.489 0 0 1-.248.068z" fill="#ffffff" opacity="1" data-original="#304e7a" class=""></path><path d="M16.565 59.44a.5.5 0 0 1-.3-.9l3.51-2.615-5.975 3.448a.5.5 0 0 1-.59-.8l2.01-1.867-4.62 2.667a.5.5 0 0 1-.562-.823l.937-.748-2.719 1.571a.5.5 0 0 1-.556-.828l.421-.325-2 1.153a.5.5 0 0 1-.615-.774l2.267-2.418-4.915 2.838a.5.5 0 0 1-.614-.776l1.944-2.067-2.6 1.5a.5.5 0 0 1-.615-.776l2.349-2.534-2.011 1.164a.5.5 0 0 1-.568-.818l.385-.317a.477.477 0 0 1-.461-.187.5.5 0 0 1 .033-.654l2.473-2.589-1.863 1.074a.5.5 0 0 1-.592-.8l1.7-1.589-1.107.639a.5.5 0 0 1-.581-.809l1.077-.944-.5.286a.5.5 0 0 1-.61-.78l2.388-2.463-1.775 1.028a.5.5 0 0 1-.61-.778l2.458-2.566-1.848 1.065a.5.5 0 0 1-.585-.8l1.346-1.212-.761.439a.5.5 0 0 1-.539-.841l4.14-2.922-3.6 2.079a.5.5 0 0 1-.538-.841l1.463-1.03-.926.535a.5.5 0 0 1-.548-.835l1.453-1.08-.9.523a.5.5 0 0 1-.586-.8l1.881-1.706-1.295.748a.5.5 0 0 1-.631-.757l.91-1.068a.5.5 0 0 1-.205-.931l2.037-1.177a.5.5 0 0 1 .631.757l-.735.863 2.844-1.642a.5.5 0 0 1 .586.8l-1.887 1.706 4.346-2.509a.5.5 0 0 1 .548.834l-1.45 1.078 3.311-1.912a.5.5 0 0 1 .537.842L10.689 34.5l3.241-1.87a.5.5 0 0 1 .538.841L6.342 39.2a.5.5 0 0 1-.07.666l-1.343 1.219.761-.439a.5.5 0 0 1 .612.778L3.844 43.99l1.846-1.065a.5.5 0 0 1 .61.78l-2.388 2.463 1.778-1.026a.5.5 0 0 1 .581.808l-1.077.95.5-.287a.5.5 0 0 1 .592.8L4.583 49l1.107-.639a.5.5 0 0 1 .612.779L3.83 51.723l1.86-1.074a.5.5 0 0 1 .568.819l-.383.315a.5.5 0 0 1 .433.836l-2.351 2.536 2.671-1.542a.5.5 0 0 1 .614.776L5.3 56.456l4.9-2.829a.5.5 0 0 1 .615.774l-2.268 2.418 5.528-3.192a.5.5 0 0 1 .556.828l-.423.327 2-1.155a.5.5 0 0 1 .562.823l-.936.748 2.723-1.571a.5.5 0 0 1 .589.8l-2.01 1.868 9.553-5.516a.5.5 0 0 1 .549.834l-3.51 2.616 2.961-1.71a.5.5 0 0 1 .588.8L24.1 56.235l2.587-1.494a.5.5 0 0 1 .576.813l-.43.368a.5.5 0 0 1 .324.927l-4.372 2.523a.5.5 0 0 1-.575-.812l.283-.243-1.829 1.056a.5.5 0 0 1-.588-.8l3.177-2.917-6.441 3.718a.491.491 0 0 1-.247.066z" fill="#ffffff" opacity="1" data-original="#304e7a" class=""></path><path d="M12.233 49.47a.5.5 0 0 1-.34-.866l1.52-1.417-2.133 1.231a.5.5 0 0 1-.564-.821l.724-.585-.16.092a.5.5 0 0 1-.613-.777l1.087-1.148-.474.273a.5.5 0 0 1-.676-.693l.351-.575a.5.5 0 0 1-.122-.916l1.161-.67a.5.5 0 0 1 .677.693l-.192.315 1.748-1.006a.5.5 0 0 1 .613.776l-1.086 1.147 2.735-1.579a.5.5 0 0 1 .565.822l-.722.583.388-.224a.5.5 0 0 1 .591.8l-1.522 1.415.931-.537a.5.5 0 0 1 .6.785l-.31.312a.5.5 0 0 1 .206.931L14.5 49.4a.5.5 0 0 1-.6-.785l.066-.067-1.477.852a.49.49 0 0 1-.256.07z" fill="#ffffff" opacity="1" data-original="#304e7a" class=""></path></g><path fill="#1e1e1e" d="M.276 18.9c.3 2.765-1.178 7.15 2.329 8.26 6.975.346 14.065.014 21.075.112 7.489.011 2.839-17.88 4.046-23.34C27.474-2.286 9.584 1.8 4.646.721-3.217.969 1.466 13.673.276 18.9zM1.742 3.479c-.1-4.356 18.305-1.472 22.3-2.144 4.484 2.417 1.337 9.7 2.232 13.981-.635 3.44 1.886 9.638-1.912 11.407-27.989-.081-22.186 4.136-22.62-23.244z" opacity="1" data-original="#262626" class=""></path><path fill="#1e1e1e" d="M5.269 20.626c-.033 3.79 10.691 1.11 13.631 1.87 1.511 0 3.806.262 3.831-1.862 0-4.532.04-9.068 0-13.6-.616-3.207-9.811-.853-12.659-1.53-1.445 0-4.647-.518-4.8 1.6-.143 4.496.073 9.018-.003 13.522zM6.731 6.937c.012-.481-.06-.393.285-.442 3.991-.009 8 .006 11.994 0 1.158-.128 2.644-.186 2.258 1.437-.069 4.5.134 9.116-.067 13.573-17.718-.066-14.287 3.086-14.47-14.568z" opacity="1" data-original="#262626" class=""></path><path fill="#1e1e1e" d="M11.756 17.551c1.873-.289 4.926.923 5.912-1.213-.151-1.781.892-4.659-.865-5.768-1.949-.051-4.534-.716-6.174.545-.457 1.726-1.314 5.985 1.127 6.436zm.35-1.1c.081.007.048.019 0 0zm3.781-4.89c-.059 0-.027 0 0 0zm-4.151.531c.236-1.2 3.066-.236 4.159-.53.768 1.076.377 3.57.22 4.887-4.934.086-4.488.592-4.379-4.362zM59.731 7.247C61.6-1.579 52.126.641 46.511.515c-4.42.8-12.544-2.454-14.224 3.225.844 4.954-2.432 22.4 2.489 23.6C59.7 26.242 60.642 35 59.731 7.247zm-1.462 16.77c-.15 5.062-16.445 1.488-20.661 2.5-2.756.514-4.379-1.652-3.877-4.281.08-6.308-.151-12.665.069-18.946 1.17-3.237 5.538-1.3 8.15-1.8 23.103-.89 15.031.18 16.319 22.527z" opacity="1" data-original="#262626" class=""></path><path fill="#1e1e1e" d="M54.733 7.039c-.63-3.232-9.852-.876-12.719-1.552-1.441 0-4.588-.531-4.747 1.611-.129 4.683.062 9.418.008 14.1 1.457 2.918 10.412.627 13.7 1.319 1.505 0 3.73.254 3.756-1.874-.001-4.536.044-9.073.002-13.604zm-1.466 13.907c-1.127 1.369-5.733.148-7.754.543-2.025-.445-5.5.967-6.781-.639.015-4.634-.021-9.285 0-13.908 3.439-1.208 8.428-.034 12.358-.431 1.156-.175 2.569-.2 2.177 1.416-.017 4.338.026 8.686 0 13.019z" opacity="1" data-original="#262626" class=""></path><path fill="#1e1e1e" d="M49.724 14.105c.022-1.459.375-3.808-1.816-3.5-2.575-.042-6.48-.61-5.632 3.23-.076 1.657-.276 3.995 2.109 3.559 2.591.116 6.187.427 5.339-3.289zm-4.365 2.5c-2.726.522-1.31-3.237-1.633-4.784a.785.785 0 0 1 .153-.428c5.4-.4 4.585.356 4.247 5.205-.926.02-1.844.002-2.767.008zm2.743.032c-.021.024-.026.011 0 0zM40.725 34.941c.063-2.179-6.112-1.685-7.16-.614-.662 1.469-.126 3.294-.29 4.867.547 2.2 3.781.89 5.445 1.228 2.97-.008 1.79-3.554 2.005-5.481zm-5.825-.549c.03-.04.035-.017 0 0zm1.456 5.187c-2.656.531-1.515-3.589-1.477-5.158 5.431-.364 4.589.24 4.246 5.15-.925.02-1.85.001-2.773.008zM58.733 37.24c-.131-1.214.51-3.04-.923-3.639-1.956-.033-4.513-.7-6.173.544-.8 1.444-.187 3.312-.37 4.914.392 2.5 3.894 1.122 5.654 1.457 1.834-.016 1.938-1.873 1.812-3.276zm-1.612 2.246c-5.25.321-4.653-.089-4.232-4.982-.042.042.02.016.021 0 1.779.265 5.024-1 4.356 1.9a16.628 16.628 0 0 1-.1 3.074zM40.724 52.847c-.3-2.029-3.054-1.018-4.473-1.25-3.715-.658-2.964 3.155-2.975 5.6.552 2.183 3.781.868 5.439 1.209 2.997-.015 1.785-3.612 2.009-5.559zM36.357 57.6c-2.722.52-1.311-3.21-1.63-4.773a.746.746 0 0 1 .153-.423c5.394-.4 4.592.358 4.244 5.189-.924.016-1.844-.001-2.767.007zM49.724 43.847c-.3-1.991-3.059-.935-4.456-1.188-3.7-.66-2.995 3.083-2.992 5.535.571 2.12 3.783.8 5.422 1.147 3.002.001 1.816-3.541 2.026-5.494zm-1.8 4.813c-5.354.469-4.35-.741-4.034-5.308 1.274-.029 2.533 0 3.805-.012 1.138.906.5 3.742.453 5.261zM58.724 52.847c-.138-1.954-6.051-1.4-7.141-.45-.7 1.428-.135 3.233-.308 4.8.542 2.068 3.668.764 5.257 1.111 3.134.144 2.018-3.446 2.192-5.461zM54.487 57.7c-2.8.547-1.707-3.758-1.58-5.39 5.417-.489 4.583.716 4.191 5.39zM2.771 59.248c6.7.313 13.495 0 20.229.106 4.317.455 5.194-3.617 4.724-7.057-1.155-4.929 3.143-19.02-3.462-19.651C18.248 33.9-1.964 28.519.276 38.436c.949 4.78-2.504 19.307 2.495 20.812zM1.757 35.527c.453-4.433 17.8-1.3 22.027-2.17 1.925.186 2.492 1.907 2.492 3.54-.889 4.787 2.437 19.937-1.977 21.75C-3.357 58.544 2 62.89 1.757 35.527z" opacity="1" data-original="#262626" class=""></path><path fill="#1e1e1e" d="M5.265 52.612c-.054 3.884 10.748 1.169 13.721 1.934 1.523 0 3.723.252 3.749-1.9 0-4.532.048-9.069 0-13.6-.589-3.292-9.859-.917-12.73-1.594-1.466 0-4.579-.534-4.74 1.635-.14 4.498.076 9.021 0 13.525zm1.47-13.661c3.492-1.144 8.418-.029 12.364-.406a6.558 6.558 0 0 1 1.8 0c1 4.393.045 9.707.364 14.392-.032.624-.353.518-.843.518H9.68c-.889-.155-2.661.584-2.945-.594.015-4.633-.022-9.287 0-13.91z" opacity="1" data-original="#262626" class=""></path><path fill="#1e1e1e" d="M11.71 49.375c1.909-.273 6.108 1.046 6.015-1.985-.282-1.467.787-3.947-.9-4.691-2 .065-4.593-.7-6.251.655-.32 1.625-1.263 5.783 1.136 6.021zm2.926-6c2.688-.536 1.506 3.652 1.5 5.221l-.026.028c-5.056.38-4.483-.2-4.387-4.808a.719.719 0 0 1 .154-.428c.942-.029 1.823-.005 2.759-.013z" opacity="1" data-original="#262626" class=""></path></g></svg>