<svg width="521" height="674" viewBox="0 0 521 674" fill="none" xmlns="http://www.w3.org/2000/svg">
<path d="M472.592 0.998657L457.144 24.8367L455.895 28.4088L452.323 34.3028C452.323 34.3028 447.591 37.9347 444.019 39.1245C440.447 40.3142 432.144 41.4443 432.144 41.4443H395.18L388.395 44.3015L372.413 50.9103L341.341 64.1224L313.841 77.8748L296.25 88.6774L295.984 88.2324L288.036 93.8551L270.179 105.731L257.144 110.552L246.431 122.428C246.431 122.428 239.257 126.032 233.306 128.409C227.354 130.788 217.858 133.141 217.858 133.141L203.573 139.125L179.732 156.982L169.018 164.123L163.038 174.839L154.734 189.124L140.446 208.143L132.142 211.712L126.161 217.697L116.608 221.268L109.464 222.428L104.732 226L102.323 240.285L97.5912 241.445L95.179 253.41L90.447 265.286L88.0354 280.731L89.2871 293.856L78.5714 314.124L69.0183 320.016L59.4654 321.269L53.5708 330.732L50.0013 339.126L41.6082 342.697L25.0008 347.429L13.0355 349.839L3.5722 355.733L0 364.127L3.5722 371.267C3.5722 371.267 5.89192 374.78 9.46331 373.59C13.0355 372.4 21.4286 366.446 21.4286 366.446L26.1606 374.839L30.8927 386.715L23.751 395.018L26.1606 405.732H33.3048C33.3048 405.732 36.8463 408.112 41.6082 409.303C46.3675 410.496 50.0013 410.493 53.5708 412.876C54.9099 413.769 55.7278 414.017 56.2493 413.946C56.4259 413.924 56.5859 413.933 56.6973 413.856C56.8083 413.783 56.9009 413.688 56.9635 413.59C57.0259 413.492 57.0259 413.327 57.0531 413.232C57.1101 413.047 57.143 412.965 57.143 412.965L57.4113 413.232L64.2863 414.125L69.0183 420.02L72.5905 440.286L71.4279 466.446V487.876L66.6063 527.161L52.3213 565.287L35.7136 598.591L42.8577 602.161L46.4272 609.305L51.1611 615.286L54.7306 617.698L58.3028 624.842C58.3028 624.842 71.4279 627.161 71.4279 630.734C71.4279 634.305 80.894 637.877 80.894 637.877L84.4633 645.019L90.447 651.002L102.32 653.412L114.286 652.162L122.589 645.019L132.142 634.305L144.018 621.27L153.571 618.858L159.465 609.305L171.428 604.573L178.572 587.876L191.608 568.859L202.32 559.306L216.608 521.269L232.143 492.697L244.018 477.162L263.035 467.696L271.429 460.555L279.732 453.411L283.304 449.839L292.857 443.858L303.573 440.286L322.59 435.554L335.715 433.145L342.859 439.126L338.038 447.43L347.591 448.589L371.429 456.983L370.18 447.43L364.288 436.714L367.857 429.573L375.001 414.125L382.145 403.412L383.305 399.84L376.161 397.428L367.857 395.018L357.144 399.84L354.732 392.697V373.59L355.359 370.018L355.536 370.107L359.466 353.41L371.429 333.142L378.573 328.41L377.323 321.269L386.876 309.303L398.753 305.731H414.286L415.446 291.446V281.983L419.018 271.267L423.75 255.733L427.322 252.161C427.322 252.161 429.911 242.961 429.911 242.963L431.964 235.732L440.358 233.41L443.84 227.339L434.466 222.159L435.626 208.768L440.358 199.391L451.074 172.516L451.163 172.429L459.467 166.445L465.448 156.982L472.592 151L473.752 140.284L467.857 134.303L466.608 122.428L476.161 105.731L482.145 96.2673L491.609 86.7137L500.002 79.5701L494.018 68.8572L486.877 61.713L485.717 53.4095L488.037 41.4443L489.286 29.5708L490.449 16.4456L482.145 10.5517L472.592 0.998657Z" fill="#D0D6D7"/>
</svg>
