<svg xmlns="http://www.w3.org/2000/svg" version="1.1" xmlns:xlink="http://www.w3.org/1999/xlink" width="512" height="512" x="0" y="0" viewBox="0 0 60 60" style="enable-background:new 0 0 512 512" xml:space="preserve" class=""><g><path fill="#ffffff" d="M25.278 59.47a.5.5 0 0 1-.267-.922l1.522-.967-3.155 1.819a.5.5 0 0 1-.527-.848L33.728 51.3 19.7 59.4a.5.5 0 0 1-.524-.85l13.134-8.64-16.179 9.341a.5.5 0 0 1-.514-.857l4.572-2.839-5.331 3.077a.5.5 0 0 1-.517-.856l11.771-7.457-12.337 7.122a.5.5 0 0 1-.521-.852l16.392-10.577-16.412 9.475a.5.5 0 0 1-.514-.856l9.42-5.883-8.91 5.144a.5.5 0 0 1-.511-.859l2.691-1.653-2.18 1.258a.5.5 0 0 1-.513-.858l8.038-5-7.525 4.345a.5.5 0 0 1-.511-.858l4-2.462-3.489 2.011a.5.5 0 0 1-.519-.853l15.741-10.087-15.222 8.788a.5.5 0 0 1-.511-.859L14.2 45.9l-.966.557a.5.5 0 0 1-.516-.855l11.515-7.243-11 6.351a.5.5 0 0 1-.516-.856L24.255 36.6 13.23 42.961a.5.5 0 0 1-.511-.858l1.737-1.066-1.226.707a.5.5 0 0 1-.511-.858l3.334-2.051-2.823 1.629a.5.5 0 0 1-.511-.86l1.372-.839-.861.5a.5.5 0 0 1-.517-.855l13.566-8.6-13.049 7.528a.5.5 0 0 1-.52-.853l16.622-10.7-16.1 9.3a.5.5 0 0 1-.518-.854l14.43-9.185-13.914 8.022a.5.5 0 0 1-.514-.856l9.205-5.745-8.691 5.017a.5.5 0 0 1-.511-.858l2.246-1.379-1.735 1a.5.5 0 0 1-.517-.854l13.639-8.651-13.122 7.576a.5.5 0 0 1-.517-.854l13.494-8.553L13.23 26.4a.5.5 0 0 1-.52-.852l16.721-10.78-16.2 9.353a.5.5 0 0 1-.513-.857l6.982-4.338-6.47 3.735a.5.5 0 0 1-.515-.856l8.731-5.466-8.216 4.743a.5.5 0 0 1-.519-.853l11.951-7.64-11.432 6.6a.5.5 0 0 1-.52-.852l10.375-6.69-9.855 5.688a.5.5 0 0 1-.524-.851l9.376-6.14-8.852 5.109a.5.5 0 0 1-.529-.848l8.761-5.9-8.232 4.754a.5.5 0 0 1-.52-.853l1.442-.93-.922.532a.5.5 0 0 1-.531-.846l4.686-3.193-4.155 2.4a.5.5 0 0 1-.539-.84l4.116-2.92-3.577 2.062a.5.5 0 0 1-.551-.831l3.4-2.571-2.849 1.64a.5.5 0 0 1-.583-.8l2.7-2.414L13.249 5.1a.5.5 0 0 1-.619-.771l1.252-1.366a.5.5 0 0 1-.234-.933L16.024.661a.5.5 0 0 1 .62.771l-1.083 1.181L19.053.6a.5.5 0 0 1 .583.805l-2.7 2.416L22.512.6a.5.5 0 0 1 .551.831L19.672 4l5.89-3.4a.5.5 0 0 1 .539.84l-4.117 2.919L28.5.6a.5.5 0 0 1 .531.845l-4.689 3.2 7-4.041a.5.5 0 0 1 .52.852l-1.428.922L33.508.6a.5.5 0 0 1 .529.847l-8.765 5.9L36.963.6a.5.5 0 0 1 .524.85L28.11 7.59 40.223.6a.5.5 0 0 1 .52.852L30.368 8.14 43.335.654a.5.5 0 0 1 .519.854L31.913 9.142 45.19 1.476a.5.5 0 0 1 .516.856L36.977 7.8 46.1 2.527a.5.5 0 0 1 .513.858l-6.98 4.338 6.937-4a.5.5 0 0 1 .521.852L30.363 15.356 46.67 5.942a.5.5 0 0 1 .517.855L33.7 15.344l12.97-7.487a.5.5 0 0 1 .517.855l-13.638 8.65L46.67 9.787a.5.5 0 0 1 .512.859L44.91 12.04l1.76-1.016a.5.5 0 0 1 .515.857l-9.19 5.735 8.675-5.009a.5.5 0 0 1 .518.855l-14.439 9.191 13.921-8.037a.5.5 0 0 1 .52.853l-16.614 10.7 16.094-9.292a.5.5 0 0 1 .517.854L33.61 26.34l13.06-7.54a.5.5 0 0 1 .512.859l-1.346.824.834-.483a.5.5 0 0 1 .512.858l-3.334 2.051 2.822-1.629a.5.5 0 0 1 .512.859l-1.738 1.065 1.226-.704a.5.5 0 0 1 .517.855l-11.541 7.259 11.024-6.365a.5.5 0 0 1 .517.855l-11.516 7.243L46.67 26a.5.5 0 0 1 .512.859l-1.477.905.965-.557a.5.5 0 0 1 .519.854L31.44 38.148l15.23-8.792a.5.5 0 0 1 .512.859l-3.975 2.448 3.463-2a.5.5 0 0 1 .514.857l-8.056 5.01 7.542-4.353a.5.5 0 0 1 .512.858l-2.666 1.638 2.154-1.243a.5.5 0 0 1 .515.856l-9.416 5.88 8.9-5.139a.5.5 0 0 1 .521.853l-16.4 10.582L46.67 37.3a.5.5 0 0 1 .517.855L35.431 45.6l11.239-6.49a.5.5 0 0 1 .514.858L42.6 42.815l4.071-2.35a.5.5 0 0 1 .524.85l-13.137 8.642 12.612-7.281a.5.5 0 0 1 .527.848L36.32 50.775 46.67 44.8a.5.5 0 0 1 .517.854l-1.533.974 1.016-.586a.5.5 0 0 1 .526.85l-5.5 3.65 4.973-2.87a.5.5 0 0 1 .54.84l-6.756 4.818 6.216-3.588a.5.5 0 0 1 .54.84l-3.8 2.706 3.26-1.882a.5.5 0 0 1 .562.823l-3.77 3.021 3.209-1.85a.5.5 0 0 1 .583.806l-2.132 1.9 1.484-.856a.5.5 0 0 1 .6.786l-1.031 1.029a.5.5 0 0 1 .074.9l-2.375 1.372a.5.5 0 0 1-.6-.786l.533-.532-2.393 1.381a.5.5 0 0 1-.583-.8l2.131-1.9-4.69 2.7a.5.5 0 0 1-.562-.823l3.771-3.021-6.66 3.844a.5.5 0 0 1-.54-.839l3.8-2.706-6.142 3.545a.5.5 0 0 1-.54-.839l6.756-4.819-9.8 5.658a.5.5 0 0 1-.527-.849l5.5-3.655-7.8 4.5a.5.5 0 0 1-.249.074z" opacity="1" data-original="#444477" class=""></path><path fill="#ffffff" d="M31.145 5.47a.5.5 0 0 1-.343-.865l1.084-1.019L28.738 5.4a.5.5 0 0 1-.623-.765l1.46-1.632L25.421 5.4a.5.5 0 0 1-.586-.8l.9-.818-1.878 1.084a.5.5 0 0 1-.624-.764l.98-1.1-.973.562a.5.5 0 0 1-.736-.547l.288-1.232a.5.5 0 0 1-.062-.9l.5-.289a.508.508 0 0 1 .549.032.5.5 0 0 1 .188.516l-.228.972L26.387.59a.5.5 0 0 1 .624.764l-.979 1.1L29.277.583a.5.5 0 0 1 .586.8l-.9.818L31.779.578a.5.5 0 0 1 .623.766l-1.459 1.632L35.109.57a.5.5 0 0 1 .593.8l-1.084 1.02L36.67 1.2a.5.5 0 0 1 .666.71L36.3 3.468l.2-.115a.5.5 0 1 1 .5.865L34.947 5.4a.5.5 0 0 1-.666-.71l1.036-1.553L31.4 5.4a.5.5 0 0 1-.255.07z" opacity="0" data-original="#c4e1e8" class=""></path><path fill="#ffffff" d="M19.841 47.47a.5.5 0 0 1-.264-.925l11.971-7.42L17.21 47.4a.5.5 0 0 1-.516-.856l18.575-11.637L13.626 47.4a.5.5 0 0 1-.509-.86l5.914-3.587-7.7 4.447a.5.5 0 0 1-.509-.86l3.515-2.12L9.17 47.4a.5.5 0 0 1-.513-.858l19.908-12.286L5.87 47.358a.5.5 0 0 1-.513-.858l21.326-13.156-21.721 12.54a.5.5 0 0 1-.509-.861l7.926-4.79-8.028 4.635a.5.5 0 0 1-.51-.86l12.63-7.673-13.2 7.62a.5.5 0 0 1-.509-.86l11.268-6.84L1.742 43.35a.5.5 0 0 1-.509-.861l6.5-3.926-6.453 3.724a.5.5 0 0 1-.512-.858l17.721-10.937L1.28 40.427a.5.5 0 0 1-.516-.856l21.1-13.309L1.28 38.147a.5.5 0 0 1-.51-.859l4.977-3.036-4.467 2.579a.5.5 0 0 1-.518-.854l16.846-10.7L4.453 32.87a.5.5 0 0 1-.516-.856l8.2-5.149-6.876 3.97a.5.5 0 0 1-.515-.856L7.907 28l-2.722 1.574a.5.5 0 0 1-.523-.851l9.087-5.916-9.2 5.313a.5.5 0 0 1-.516-.856l.554-.348-.748.432a.5.5 0 0 1-.521-.854l3.942-2.532-4.649 2.681a.5.5 0 0 1-.535-.844l9.025-6.25-9.821 5.67a.5.5 0 0 1-.52-.854l.66-.424-.14.08a.5.5 0 0 1-.524-.85l1.39-.911-.866.5a.5.5 0 0 1-.537-.842l4-2.805-3.458 2a.5.5 0 0 1-.54-.839L3 18.656l-1.72.992a.5.5 0 0 1-.55-.833l1.521-1.136-.96.553a.5.5 0 0 1-.592-.8l3.817-3.569a.5.5 0 0 1 .22-.6l1.156-.663a.5.5 0 0 1 .591.8l-1.915 1.79 4.484-2.59a.5.5 0 0 1 .55.833l-1.523 1.135 3.415-1.97a.5.5 0 0 1 .54.84l-2.258 1.611 4.246-2.449a.5.5 0 0 1 .538.841l-4 2.807 6.32-3.648a.5.5 0 0 1 .524.85l-1.385.908 3.049-1.758a.5.5 0 0 1 .521.853l-.656.422 2.209-1.275a.5.5 0 0 1 .535.843l-9.027 6.249L24.939 12.6a.5.5 0 0 1 .521.853l-3.938 2.53 5.862-3.383a.5.5 0 0 1 .515.856l-.573.36 2.108-1.216a.5.5 0 0 1 .522.851l-9.077 5.909L32.59 12.6a.5.5 0 0 1 .514.856L29.94 15.43l4.906-2.83a.5.5 0 0 1 .515.856l-8.207 5.155L37.568 12.6a.5.5 0 0 1 .519.854l-16.845 10.7L41.256 12.6a.5.5 0 0 1 .511.859l-4.981 3.037 6.75-3.9a.5.5 0 0 1 .517.855L22.952 26.76 47.483 12.6a.5.5 0 0 1 .513.858L30.279 24.39 50.705 12.6a.5.5 0 0 1 .509.86l-6.494 3.922 8.289-4.782a.5.5 0 0 1 .51.86L42.247 20.3 54.7 13.11a.5.5 0 0 1 .51.861l-12.635 7.674 12.577-7.261a.5.5 0 0 1 .509.86l-7.929 4.792 8.115-4.684a.5.5 0 0 1 .512.858L35.033 29.367 57.5 16.4a.5.5 0 0 1 .513.858L38.1 29.548l20.62-11.906a.5.5 0 0 1 .509.86l-3.483 2.1 2.974-1.717a.5.5 0 0 1 .509.86l-5.929 3.6 5.42-3.129a.5.5 0 0 1 .515.856L40.659 32.71 58.72 22.283a.5.5 0 0 1 .513.858l-11.967 7.418 11.454-6.613a.5.5 0 0 1 .511.859l-6.713 4.134 2.951-1.7a.5.5 0 0 1 .517.856L46.15 34.32l8.581-4.954a.5.5 0 0 1 .527.849l-12.634 8.4 12.527-7.232a.5.5 0 0 1 .525.85l-8.434 5.533 8.9-5.136a.5.5 0 0 1 .522.851L51.1 37.1l6.4-3.7a.5.5 0 0 1 .52.854l-2.7 1.737 3.313-1.912a.5.5 0 0 1 .539.841l-8.791 6.226 8.339-4.814a.5.5 0 0 1 .545.836l-6.491 4.749 5.946-3.432a.5.5 0 0 1 .535.844l-1.645 1.14 1.11-.641a.5.5 0 0 1 .546.836l-1.768 1.3 1.222-.705a.5.5 0 0 1 .6.79L55.477 45.8a.394.394 0 0 1 .031.048.5.5 0 0 1-.183.682l-1.505.87a.5.5 0 0 1-.6-.79l2.566-2.51-5.719 3.3a.5.5 0 0 1-.546-.836l1.764-1.293L47.6 47.4a.5.5 0 0 1-.536-.843l1.651-1.144-3.444 1.987a.5.5 0 0 1-.544-.836l6.491-4.75-9.677 5.586a.5.5 0 0 1-.539-.84l8.791-6.226L37.552 47.4a.5.5 0 0 1-.521-.853l2.7-1.734-4.482 2.587a.5.5 0 0 1-.522-.851l5.557-3.614-7.735 4.465a.5.5 0 0 1-.525-.85l8.43-5.531L29.4 47.4a.5.5 0 0 1-.526-.848l12.634-8.4L25.491 47.4a.5.5 0 0 1-.517-.855l9.844-6.234-12.28 7.089a.5.5 0 0 1-.512-.858l6.709-4.132-8.644 4.99a.5.5 0 0 1-.25.07z" opacity="1" data-original="#f7bb26" class=""></path><g fill="#262626"><path d="M59.724 34.744c-.13-.992-.837-1.031-1.624-1.345a3.887 3.887 0 0 1-1.529-5.954c.887-1.194 3.054-.867 3.153-2.63-.267-2.5.84-5.981-.6-8.071-.676-.426-1.445-.432-2.094-1.009-1.252-.823-.881-3.041-2.634-3.087-2.2-.139-4.435-.124-6.666-.083-.384-3.465 1.041-7.6-1.126-10.589-6.482-3.532-15.412-.565-22.68-1.482-11.018-.919-12.452 1.4-11.656 12.078-2.668.428-7.347-1.35-8.29 2.065-.513 2.115-3.959 1.55-3.7 3.939-1.014 12.055 2.351 4.651 4 11.618-1.8 6.77-4.961-.723-4 11.68-.2 1.416 1.231 1.578 2.222 2.035a4.573 4.573 0 0 1 1.693 2.467c1.732 2.117 5.6.5 8.084.976-.34 9.382-.786 13.032 10.119 11.922 7.461-.348 15.149.736 22.5-.49 4.506-1.874 2.372-7.637 2.834-11.432 11.105.122 4.553.41 10.538-3.975 2.892-.908 1.062-6.211 1.456-8.633zM35.626 1.505c.217 0 .439-.008.657-.011.514 3-1.168 3.352-3.613 3.024-2.973-.525-9.658 2-8.951-3.013zM14.451 2.729c1.987-2.155 5.228-.9 7.813-1.224-.614 3.152 1.862 4.533 4.7 3.976 3.66-.507 11.525 2.086 10.768-4.013C47.427.035 46.4 5.087 46.268 12.593q-16.276.154-32.536-.01c.341-3.169-.861-6.978.719-9.854zM45.533 57.47c-5.122 3.027-15.05.438-21.316 1.257-10.96.867-10.86-1.3-10.493-11.375h32.552c-.335 3.278.85 7.126-.743 10.118zm12.019-14.525a4.859 4.859 0 0 0-3.23 3.7c-4.035.043-8.191-.03-12.27 0-11.81-.031-23.636.046-35.438 0-1.2-.1-1.113-1.53-1.809-2.4-.961-1.485-3.766-1.138-3.08-3.463.065-2.082-.117-4.237.035-6.279 3.291-1.136 5.646-5.174 2.415-7.893-1.553-.7-2.962-1.266-2.45-3.22.409-1.991-.949-5.03.768-6.353 6.382-3.754-1.223-3.969 9.907-3.689a.955.955 0 0 0 1.04 0H46.4a.955.955 0 0 0 1.04 0c2.661.466 6.829-1.515 7.526 2.09 2.925 2.958 3.883.944 3.309 6.251.994 6.808-3.474 2.827-4 8.5-.2 3.084 2.873 3.185 4 4.938-.188 2.015.797 6.647-.723 7.818z" fill="#1e1e1e" opacity="1" data-original="#262626" class=""></path><path d="M37.289 54.617C32.391 54.946 27 53.96 22.33 55c-.406.717 18.059.8 14.959-.383zM51.058 17.447c-2.08.385-5.266-.839-6.794.6-.304 1.058 10.391.705 6.794-.6zM44.938 22.537c1.768-.345 4.556.773 5.8-.59.211-1.056-9.154-.602-5.8.59zM44.739 26.489c.863-.171 7.526.626 5.522-.978-.861.171-7.526-.626-5.522.978zM50.3 29.667c-.791.108-7.207-.414-5.606.666.794-.108 7.206.414 5.606-.666zM45.927 33.683c-4.709.685 2.575.726 3.766.633 3.186-.897-2.902-.608-3.766-.633zM44.732 38.461c.854-.167 7.455.6 5.537-.922-.855.167-7.456-.6-5.537.922zM51.267 41.535c-2.223.283-5-.607-6.95.417-.66 1.005 9.66.787 6.95-.417zM40.461 28.673c-1.6-.18-1.133 1.474-1.185 2.521a1.088 1.088 0 0 0 1.448-.388c-.151-.622.343-1.858-.263-2.133zM40.465 22.685c-1.6-.166-1.141 1.454-1.189 2.509a1.135 1.135 0 0 0 1.448-.388c-.151-.616.341-1.86-.259-2.121zM40.065 16.471c-1.228.093-.891 2.171-.624 2.947 1.599.921 1.887-2.963.624-2.947zM40.462 40.675c-1.6-.177-1.135 1.47-1.186 2.519a1.1 1.1 0 0 0 1.448-.388c-.151-.621.343-1.858-.262-2.131zM40.464 34.684c-1.6-.168-1.139 1.455-1.188 2.51a1.131 1.131 0 0 0 1.448-.388c-.151-.616.341-1.859-.26-2.122zM28.222 22.344c11.717-.885-14.569-.728-16.922-.687-4.088 1.443 15.28.382 16.922.687zM28.236 30.394c11.877-1.016-14.606-.832-16.949-.787-4.246 1.637 15.337.449 16.949.787zM31.466 37.691c-6.959.249-14.191-.49-21.024.274 4.642 1.017 12.059-.01 17.614.345.694-.076 4.207.316 3.41-.619z" fill="#1e1e1e" opacity="1" data-original="#262626" class=""></path></g></g></svg>