<svg xmlns="http://www.w3.org/2000/svg" version="1.1" xmlns:xlink="http://www.w3.org/1999/xlink" width="512" height="512" x="0" y="0" viewBox="0 0 32 32" style="enable-background:new 0 0 512 512" xml:space="preserve" fill-rule="evenodd" class=""><g><path d="M5.745 28.068c.92-8.543 6.295-14.97 13.527-19.194 2.363-1.38 4.872-2.699 7.585-3.198a1 1 0 0 0-.361-1.967c-2.942.541-5.673 1.942-8.232 3.437-7.788 4.548-13.518 11.51-14.509 20.709a1 1 0 0 0 1.99.213z" fill="#1e1e1e" opacity="1" data-original="#000000"></path><path d="M27.718 4.804c-.407 1.491-1.368 3.086-1.902 4.427a1 1 0 0 0 1.86.74c.737-1.856 2.125-4.183 2.226-6.145.028-.556-.245-.843-.614-1.01a1.084 1.084 0 0 0-.468-.09c-.08 0-.27.04-.364.062-.226.008-.45.016-.675.016-.757.002-1.518-.047-2.274-.092-2.274-.133-4.538-.413-6.809-.591a1 1 0 1 0-.155 1.994c2.284.179 4.56.46 6.847.595.774.045 1.552.094 2.328.094z" fill="#1e1e1e" opacity="1" data-original="#000000"></path></g></svg>