<?xml version="1.0" encoding="iso-8859-1"?>
<!-- Generator: Adobe Illustrator 28.0.0, SVG Export Plug-In . SVG Version: 6.00 Build 0)  -->
<svg version="1.1" id="Layer_1" xmlns="http://www.w3.org/2000/svg" xmlns:xlink="http://www.w3.org/1999/xlink" x="0px" y="0px"
	 viewBox="0 0 512 512" style="enable-background:new 0 0 512 512;" xml:space="preserve">
<g>
	<g>
		<g>
			<path style="fill:#33CCCC;" d="M48.355,347.528h-7.678v-7.717c0-6.075-4.925-11-11-11s-11,4.925-11,11v7.717H11
				c-6.075,0-11,4.925-11,11s4.925,11,11,11h7.678v7.718c0,6.075,4.925,11,11,11s11-4.925,11-11v-7.718h7.678
				c6.075,0,11-4.925,11-11S54.431,347.528,48.355,347.528z"/>
			<g>
				<g>
					<g>
						<g>
							<path style="fill:#33CCCC;" d="M469.597,62.293c-6.075,0-11-4.925-11-11v-7.288c0-6.075,4.925-11,11-11s11,4.925,11,11v7.288
								C480.597,57.368,475.672,62.293,469.597,62.293z"/>
						</g>
						<g>
							<path style="fill:#33CCCC;" d="M469.597,117.944c-6.075,0-11-4.925-11-11v-7.288c0-6.075,4.925-11,11-11s11,4.925,11,11
								v7.288C480.597,113.02,475.672,117.944,469.597,117.944z"/>
						</g>
					</g>
				</g>
				<g>
					<g>
						<g>
							<path style="fill:#33CCCC;" d="M501,86.475h-7.272c-6.075,0-11-4.925-11-11s4.925-11,11-11H501c6.075,0,11,4.925,11,11
								S507.075,86.475,501,86.475z"/>
						</g>
						<g>
							<path style="fill:#33CCCC;" d="M445.466,86.475h-7.272c-6.075,0-11-4.925-11-11s4.925-11,11-11h7.272c6.075,0,11,4.925,11,11
								S451.541,86.475,445.466,86.475z"/>
						</g>
					</g>
				</g>
			</g>
		</g>
		<g>
			<path d="M475.599,214.421l-18.049-4.87c-4.281-15.623-10.464-30.622-18.439-44.734l9.377-16.347
				c2.465-4.299,1.753-9.715-1.741-13.229l-52.272-52.574c-3.524-3.547-8.997-4.27-13.322-1.758l-16.173,9.386
				c-14.008-8-28.893-14.204-44.396-18.506l-4.851-18.185c-1.284-4.814-5.645-8.165-10.628-8.165H231.18
				c-4.983,0-9.344,3.351-10.629,8.165l-4.85,18.185c-15.506,4.302-30.391,10.506-44.398,18.506l-16.173-9.386
				c-4.327-2.512-9.798-1.787-13.322,1.758L89.536,135.24c-3.494,3.515-4.207,8.931-1.741,13.229l9.378,16.347
				c-7.977,14.113-14.159,29.112-18.44,44.734l-18.049,4.87c-4.8,1.295-8.135,5.648-8.135,10.62v74.352
				c0,4.972,3.335,9.325,8.135,10.62l18.049,4.869c4.281,15.623,10.464,30.622,18.44,44.735l-9.378,16.347
				c-2.466,4.299-1.753,9.715,1.741,13.229l52.271,52.574c3.524,3.546,8.997,4.269,13.322,1.758l16.173-9.386
				c14.007,7.999,28.893,14.204,44.398,18.506l4.85,18.185c1.285,4.814,5.646,8.165,10.629,8.165h73.924
				c4.983,0,9.344-3.351,10.628-8.165l4.851-18.185c15.505-4.302,30.389-10.506,44.396-18.506l16.173,9.386
				c4.325,2.511,9.798,1.786,13.322-1.758l52.272-52.574c3.494-3.515,4.206-8.931,1.741-13.229l-9.377-16.347
				c7.977-14.114,14.158-29.111,18.439-44.734l18.049-4.87c4.799-1.295,8.134-5.648,8.134-10.62v-74.352
				C483.732,220.069,480.397,215.716,475.599,214.421z M461.732,290.968l-16.11,4.347c-3.893,1.051-6.899,4.147-7.834,8.069
				c-4.246,17.816-11.24,34.787-20.787,50.442c-2.09,3.427-2.146,7.72-0.15,11.201l8.378,14.604l-40.373,40.606l-14.418-8.367
				c-3.505-2.036-7.847-1.979-11.297,0.152c-15.552,9.595-32.412,16.624-50.112,20.894c-3.921,0.945-7.01,3.961-8.049,7.858
				l-4.326,16.22H239.63l-4.325-16.22c-1.04-3.897-4.129-6.913-8.05-7.858c-17.702-4.27-34.563-11.3-50.114-20.894
				c-3.449-2.129-7.79-2.188-11.297-0.152l-14.418,8.367l-40.372-40.605l8.379-14.605c1.997-3.481,1.939-7.774-0.15-11.201
				c-9.547-15.654-16.541-32.626-20.788-50.443c-0.935-3.923-3.941-7.02-7.835-8.069l-16.11-4.347v-57.501l16.11-4.347
				c3.894-1.051,6.9-4.146,7.835-8.069c4.247-17.817,11.241-34.788,20.788-50.442c2.09-3.427,2.147-7.72,0.15-11.201l-8.379-14.605
				l40.373-40.605l14.417,8.366c3.507,2.036,7.847,1.977,11.297-0.151c15.552-9.595,32.413-16.624,50.114-20.894
				c3.921-0.945,7.01-3.961,8.05-7.858l4.325-16.22h57.023l4.326,16.22c1.039,3.897,4.128,6.913,8.049,7.858
				c17.699,4.269,34.56,11.299,50.112,20.894c3.45,2.127,7.79,2.187,11.297,0.151l14.418-8.366l40.373,40.606l-8.378,14.604
				c-1.997,3.481-1.939,7.774,0.15,11.201c9.547,15.653,16.54,32.625,20.787,50.442c0.935,3.922,3.941,7.019,7.834,8.069
				l16.11,4.347V290.968z"/>
			<path d="M268.141,120.161c-78.345,0-142.083,63.726-142.083,142.056s63.738,142.056,142.083,142.056
				s142.083-63.726,142.083-142.056S346.485,120.161,268.141,120.161z M204.044,363.702c3.742-31.786,30.869-56.142,63.421-56.142
				c32.982,0,60.141,24.696,63.511,56.93c-18.29,11.273-39.817,17.782-62.835,17.782
				C244.591,382.272,222.603,375.46,204.044,363.702z M231.678,249.894c0-19.666,16.054-35.666,35.787-35.666
				s35.788,16,35.788,35.666c0,19.667-16.055,35.667-35.788,35.667S231.678,269.561,231.678,249.894z M350.552,349.46
				c-6.409-24.622-23.421-44.777-45.848-55.503c12.559-10.587,20.549-26.411,20.549-44.064c0-31.797-25.924-57.666-57.788-57.666
				s-57.787,25.869-57.787,57.666c0,17.675,8.01,33.518,20.597,44.105c-22.072,10.597-38.968,30.344-45.606,54.448
				c-22.564-21.84-36.611-52.425-36.611-86.229c0-66.199,53.869-120.056,120.083-120.056s120.083,53.856,120.083,120.056
				C388.224,296.547,373.736,327.558,350.552,349.46z"/>
		</g>
	</g>
</g>
<g>
</g>
<g>
</g>
<g>
</g>
<g>
</g>
<g>
</g>
<g>
</g>
<g>
</g>
<g>
</g>
<g>
</g>
<g>
</g>
<g>
</g>
<g>
</g>
<g>
</g>
<g>
</g>
<g>
</g>
</svg>
