<svg width="22" height="22" viewBox="0 0 22 22" fill="none" xmlns="http://www.w3.org/2000/svg">
<path d="M10.7099 7.91537C11.0932 7.49046 11.5192 7.10617 11.9813 6.76859C13.8454 5.3963 16.4907 5.73935 16.4907 5.73935C17.2878 8.0967 16.8032 10.4675 15.162 12.2974C15.3352 12.7973 15.3276 13.6882 14.6148 14.6426L13.5134 13.6481C12.7607 14.1094 11.9467 14.4623 11.0955 14.6967C11.0955 14.6967 9.75221 15.0533 8.78172 14.983C7.24712 14.9368 5.68978 14.3924 4.33201 13.0909C4.33201 13.0909 6.35999 11.9849 5.98159 9.6686C7.23481 11.2193 6.57749 13.5618 7.86182 12.7868C8.60566 12.3375 8.79534 11.1809 9.44601 9.8287" fill="#3A7CA5"/>
<path d="M10.7103 7.9155C10.7103 7.9155 9.46935 7.41853 8.87143 7.84248C8.70302 7.96198 9.02118 8.32271 9.01708 8.79002C9.01245 9.32015 8.72287 9.73105 8.99222 9.80153C9.57396 9.95372 10.4291 9.60257 10.5728 9.05988" fill="#3A7CA5"/>
<path d="M15.4744 7.527C15.4597 7.4738 15.4556 7.41822 15.4623 7.36344C15.4691 7.30867 15.4866 7.25576 15.5138 7.20774C15.5411 7.15973 15.5775 7.11754 15.621 7.0836C15.6645 7.04965 15.7143 7.02462 15.7675 7.00991C15.8207 6.99521 15.8763 6.99113 15.9311 6.99791C15.9859 7.00468 16.0388 7.02218 16.0868 7.0494C16.1348 7.07663 16.177 7.11304 16.2109 7.15657C16.2449 7.20009 16.2699 7.24988 16.2846 7.30308C16.3143 7.41053 16.3001 7.52537 16.2451 7.62234C16.1901 7.71931 16.0989 7.79047 15.9914 7.82017C15.884 7.84986 15.7692 7.83566 15.6722 7.78068C15.5752 7.7257 15.5041 7.63445 15.4744 7.527Z" fill="#3A7CA5"/>
<path d="M9.6995 15.654L9.69935 15.6525C9.69262 15.5824 9.71393 15.5125 9.75861 15.4581C9.80328 15.4037 9.86769 15.3692 9.93774 15.3622C10.0739 15.3493 10.2118 15.3312 10.3486 15.3104C10.3831 15.3052 10.4184 15.3068 10.4523 15.3152C10.4862 15.3236 10.5182 15.3386 10.5463 15.3593C10.5744 15.3801 10.5982 15.4062 10.6162 15.4361C10.6343 15.466 10.6463 15.4992 10.6515 15.5338C10.6567 15.5683 10.6551 15.6036 10.6467 15.6375C10.6383 15.6714 10.6233 15.7034 10.6025 15.7315C10.5818 15.7596 10.5557 15.7834 10.5258 15.8014C10.4959 15.8195 10.4627 15.8315 10.4281 15.8367C10.2827 15.8587 10.1355 15.8773 9.99074 15.8918C9.9206 15.8988 9.85054 15.8777 9.79593 15.8332C9.74133 15.7886 9.70665 15.7242 9.6995 15.654Z" fill="#3A7CA5"/>
<path d="M12.4556 6.41359C12.4889 6.37605 12.5322 6.34876 12.5804 6.3349C13.5891 5.71792 14.7261 5.49276 15.5418 5.41567C16.5262 5.32127 17.2511 5.41284 17.2815 5.41664C17.3309 5.42308 17.3775 5.44325 17.4159 5.47484C17.4544 5.50644 17.4833 5.5482 17.4993 5.59538C17.9426 6.90715 18.0363 8.21664 17.778 9.48897C17.5297 10.7125 16.9688 11.8355 16.109 12.8284C16.1906 13.1485 16.2012 13.5195 16.1375 13.8906C16.0456 14.427 15.809 14.9535 15.4342 15.4555C15.4121 15.4852 15.384 15.5099 15.3517 15.5281C15.3195 15.5463 15.2838 15.5575 15.2469 15.5612C15.2101 15.5648 15.1729 15.5607 15.1377 15.5491C15.1026 15.5375 15.0702 15.5187 15.0427 15.4939L13.9993 14.5527C13.2135 15.0152 12.3698 15.3716 11.4903 15.6126C11.4222 15.6311 11.3495 15.6219 11.2882 15.5868C11.227 15.5518 11.1822 15.4938 11.1636 15.4257C11.1451 15.3576 11.1544 15.2849 11.1894 15.2237C11.2245 15.1624 11.2824 15.1176 11.3505 15.0991C12.2454 14.8515 13.1013 14.4801 13.8933 13.9955C13.9422 13.9656 13.9994 13.9523 14.0564 13.9575C14.1135 13.9627 14.1673 13.9862 14.21 14.0245L15.175 14.8946C15.6935 14.0767 15.7225 13.3142 15.5614 12.8491C15.5459 12.8043 15.5427 12.756 15.5521 12.7095C15.5615 12.6629 15.5831 12.6197 15.6149 12.5843C16.1522 11.9843 16.5705 11.3344 16.8662 10.6398C16.185 10.5333 15.2656 10.0597 14.407 9.36457C13.5103 8.64065 12.8406 7.80267 12.5199 7.01686C12.0415 7.36826 11.5999 7.76724 11.2019 8.20767C11.1964 8.21368 11.1904 8.21948 11.1839 8.22507L11.1812 8.22748C11.1759 8.2323 11.1704 8.23681 11.1646 8.24101L11.1595 8.24483C11.1545 8.24844 11.1493 8.25187 11.1442 8.25511L11.1368 8.25973C11.1321 8.26233 11.1274 8.26493 11.1226 8.26735C11.1177 8.26977 11.1166 8.27047 11.1134 8.27175C11.1102 8.27304 11.1041 8.27576 11.0994 8.27758C11.0947 8.2794 11.093 8.28015 11.0895 8.28126C11.0861 8.28237 11.0796 8.28436 11.0747 8.28581C11.0697 8.28726 11.0684 8.28758 11.0653 8.28826C11.0622 8.28895 11.0545 8.29046 11.0491 8.29156C11.0437 8.29265 11.0433 8.29211 11.0404 8.29238L11.0149 8.29479C11.012 8.29507 11.004 8.29582 10.9984 8.29497C10.9929 8.29413 10.9922 8.29556 10.9888 8.29471C10.9854 8.29385 10.9789 8.29388 10.9738 8.29338C10.9686 8.29289 10.966 8.29254 10.9621 8.29194C10.9581 8.29133 10.9537 8.29057 10.9497 8.28958C10.9456 8.28858 10.9401 8.28754 10.9352 8.28623L10.9255 8.28342C10.9199 8.28173 10.9143 8.27984 10.9089 8.27773L10.9049 8.27635C10.675 8.1899 10.4379 8.12381 10.1964 8.07885C9.78058 8.00279 9.45429 8.01891 9.24456 8.12466C9.2569 8.16607 9.27559 8.21845 9.29082 8.26135C9.35545 8.44279 9.44386 8.69124 9.44129 8.97751C9.43907 9.23629 9.38363 9.46342 9.33887 9.64578C9.32466 9.70303 9.30759 9.77351 9.29719 9.82746C9.52826 9.86448 9.81574 9.81965 10.0704 9.70573C10.3502 9.5812 10.5474 9.39071 10.5983 9.19835C10.6072 9.16458 10.6227 9.1329 10.6439 9.10513C10.6651 9.07735 10.6916 9.05403 10.7218 9.03648C10.752 9.01893 10.7854 9.00751 10.82 9.00286C10.8546 8.99821 10.8899 9.00042 10.9236 9.00938C10.9574 9.01834 10.9891 9.03386 11.0168 9.05505C11.0446 9.07625 11.0679 9.10271 11.0855 9.13293C11.103 9.16314 11.1145 9.19651 11.1191 9.23114C11.1238 9.26577 11.1215 9.30097 11.1126 9.33474C11.0196 9.68567 10.7191 9.99795 10.2882 10.1913C10.1377 10.2586 9.97987 10.3079 9.81786 10.3382C9.62772 10.7467 9.47222 11.144 9.33365 11.4982C8.97465 12.416 8.69102 13.141 8.06429 13.5196C7.72671 13.7236 7.44975 13.7739 7.21776 13.6732C6.82911 13.5049 6.72023 12.9943 6.58226 12.346C6.49126 11.9187 6.38633 11.427 6.18911 10.951C6.09278 11.8 5.7169 12.4457 5.36491 12.8791C5.12615 13.172 4.85092 13.4331 4.5459 13.6561C5.15811 14.1951 5.82979 14.6138 6.54728 14.905C7.30536 15.2098 8.11173 15.3769 8.9285 15.3986C8.96447 15.398 9.00018 15.4047 9.03348 15.4183C9.06677 15.432 9.09696 15.4522 9.12221 15.4778C9.14746 15.5034 9.16726 15.5339 9.1804 15.5674C9.19354 15.6009 9.19976 15.6367 9.19867 15.6726C9.19757 15.7086 9.1892 15.7439 9.17406 15.7766C9.15891 15.8092 9.13731 15.8384 9.11055 15.8625C9.08379 15.8865 9.05243 15.9049 9.01837 15.9164C8.98432 15.928 8.94826 15.9326 8.9124 15.9298C8.03208 15.9064 7.163 15.7261 6.34604 15.3974C5.46885 15.0418 4.65589 14.5085 3.92993 13.8122C3.89973 13.7833 3.87679 13.7476 3.86296 13.7082C3.84912 13.6687 3.84479 13.6265 3.85032 13.5851C3.85584 13.5436 3.87106 13.504 3.89474 13.4696C3.91843 13.4351 3.9499 13.4067 3.98662 13.3866C3.99165 13.3838 4.49339 13.1067 4.95152 12.5425C5.56043 11.7926 5.78967 10.926 5.63331 9.96694C5.62376 9.90896 5.63367 9.84946 5.6615 9.79771C5.68932 9.74596 5.7335 9.70488 5.78713 9.68088C5.84076 9.65688 5.90083 9.65131 5.95796 9.66504C6.01509 9.67877 6.06606 9.71103 6.10293 9.75678C6.7439 10.5502 6.95133 11.5245 7.10293 12.236C7.18751 12.6327 7.29262 13.1264 7.4297 13.186C7.4747 13.2055 7.59292 13.1839 7.78965 13.0651C8.26179 12.78 8.51635 12.1293 8.83851 11.3055C8.9529 11.013 9.07868 10.6915 9.22683 10.3556C9.17787 10.3484 9.12933 10.3386 9.08143 10.3261C8.89718 10.278 8.77933 10.1375 8.76138 9.94755L8.75844 9.91643C8.75416 9.79638 8.78544 9.66865 8.82146 9.52047C8.8615 9.3566 8.90616 9.1711 8.90851 8.97391C8.90999 8.78191 8.84579 8.60082 8.7889 8.44101C8.74987 8.33111 8.71599 8.23622 8.70327 8.14109C8.67227 7.9086 8.79028 7.7872 8.86346 7.73535C9.1922 7.50222 9.67587 7.44278 10.3011 7.55849C10.513 7.59854 10.722 7.65292 10.9266 7.72126C11.3214 7.30177 11.754 6.91941 12.2188 6.57899C12.2969 6.51981 12.3758 6.46567 12.4556 6.41359ZM14.7407 8.95204C15.5745 9.62698 16.4791 10.0851 17.0583 10.1281C17.1389 9.88347 17.205 9.63432 17.2562 9.38192C17.485 8.2552 17.4149 7.09395 17.0475 5.92765C16.558 5.89177 16.0663 5.8978 15.5778 5.94569C14.8558 6.01608 13.8634 6.20992 12.9734 6.71974C13.241 7.44761 13.8731 8.24969 14.7407 8.95204Z" fill="#3A7CA5"/>
<path d="M10.6028 13.9299C10.5763 13.9072 10.5545 13.8795 10.5386 13.8483C10.5228 13.8172 10.5133 13.7832 10.5105 13.7484C10.5078 13.7136 10.512 13.6786 10.5228 13.6453C10.5337 13.6121 10.5509 13.5814 10.5736 13.5548L13.4306 10.2142C13.4533 10.1876 13.481 10.1658 13.5122 10.1499C13.5433 10.1341 13.5773 10.1246 13.6121 10.1218C13.647 10.1191 13.682 10.1233 13.7152 10.1341C13.7485 10.1449 13.7792 10.1622 13.8058 10.1849C13.8323 10.2076 13.8542 10.2353 13.87 10.2665C13.8859 10.2976 13.8954 10.3316 13.8981 10.3664C13.9008 10.4013 13.8967 10.4363 13.8859 10.4695C13.875 10.5027 13.8578 10.5335 13.8351 10.5601L10.9779 13.9007C10.9552 13.9273 10.9275 13.9491 10.8963 13.9649C10.8652 13.9808 10.8312 13.9903 10.7964 13.993C10.7616 13.9957 10.7266 13.9916 10.6933 13.9807C10.6601 13.9699 10.6294 13.9526 10.6028 13.9299ZM10.8613 11.4789C10.8347 11.4562 10.8129 11.4285 10.7971 11.3973C10.7812 11.3662 10.7717 11.3322 10.769 11.2974C10.7663 11.2626 10.7704 11.2275 10.7813 11.1943C10.7921 11.1611 10.8094 11.1304 10.8321 11.1038L12.4613 9.19892C12.5071 9.14529 12.5724 9.11207 12.6428 9.10658C12.7131 9.10109 12.7828 9.12377 12.8364 9.16964C12.8901 9.21551 12.9233 9.28081 12.9288 9.35117C12.9343 9.42153 12.9116 9.49119 12.8657 9.54482L11.2365 11.4497C11.2138 11.4763 11.1861 11.4981 11.1549 11.514C11.1238 11.5298 11.0898 11.5394 11.0549 11.5421C11.0201 11.5448 10.985 11.5406 10.9518 11.5298C10.9186 11.5189 10.8878 11.5017 10.8613 11.4789ZM12.8646 12.9974L14.5783 10.9948C14.601 10.9683 14.6287 10.9464 14.6599 10.9306C14.691 10.9147 14.725 10.9052 14.7598 10.9025C14.7947 10.8998 14.8297 10.9039 14.8629 10.9147C14.8961 10.9256 14.9269 10.9428 14.9535 10.9655C14.98 10.9882 15.0018 11.016 15.0177 11.0471C15.0335 11.0783 15.0431 11.1122 15.0458 11.1471C15.0485 11.1819 15.0444 11.2169 15.0335 11.2502C15.0227 11.2834 15.0055 11.3142 14.9827 11.3407L13.269 13.3433C13.2463 13.3698 13.2186 13.3916 13.1874 13.4075C13.1563 13.4233 13.1223 13.4329 13.0875 13.4356C13.0527 13.4383 13.0176 13.4341 12.9844 13.4233C12.9512 13.4125 12.9204 13.3952 12.8938 13.3725C12.8673 13.3498 12.8455 13.3221 12.8296 13.291C12.8138 13.2598 12.8042 13.2258 12.8015 13.191C12.7988 13.1562 12.803 13.1211 12.8138 13.0879C12.8246 13.0547 12.8419 13.0239 12.8646 12.9974Z" fill="#3A7CA5"/>
</svg>
